<svg width="675" height="24" viewBox="0 0 675 24" fill="none" xmlns="http://www.w3.org/2000/svg">
<path d="M267 12C267 9.79086 265.209 8 263 8C260.791 8 259 9.79086 259 12C259 14.2091 260.791 16 263 16C265.209 16 267 14.2091 267 12ZM263 11.25L0 11.25V12.75L263 12.75V11.25Z" fill="#2E8B57"/>
<path d="M287.6 2.48C287.733 3.42667 287.84 4.86 287.92 6.78C288 8.68667 288.033 10.3333 288.02 11.72C288.007 12.4533 288.04 13.0067 288.12 13.38C288.2 13.74 288.373 14.0067 288.64 14.18C288.907 14.34 289.32 14.42 289.88 14.42H289.98L290.1 15.7L289.98 17H289.88C288.427 17 287.4 16.6067 286.8 15.82C286.2 15.0333 285.9 13.8 285.9 12.12C285.9 10.5867 285.853 8.93333 285.76 7.16C285.68 5.37333 285.567 3.98 285.42 2.98L287.6 2.48ZM293.787 12.9C294.6 13.46 295.347 13.9067 296.027 14.24C296.707 14.56 297.213 14.72 297.547 14.72C297.68 14.72 297.773 14.7 297.827 14.66C298.173 14.4467 298.347 14.0333 298.347 13.42C298.347 12.8467 298.193 12.32 297.887 11.84C297.58 11.36 297.187 11.12 296.707 11.12C295.933 11.12 295.053 12.2133 294.067 14.4C293.68 15.2667 293.147 15.92 292.467 16.36C291.787 16.7867 291.013 17 290.147 17H289.787L289.827 14.42H290.207C291.26 14.42 292.127 13.7933 292.807 12.54C293.42 11.34 294.04 10.42 294.667 9.78C295.293 9.12667 295.987 8.8 296.747 8.8C297.44 8.8 298.047 9.02 298.567 9.46C299.087 9.9 299.487 10.4667 299.767 11.16C300.047 11.8533 300.187 12.58 300.187 13.34C300.187 14.1 300.04 14.7933 299.747 15.42C299.467 16.0467 299.053 16.5267 298.507 16.86C298.227 17.02 297.893 17.1 297.507 17.1C296.373 17.1 294.8 16.42 292.787 15.06L293.787 12.9ZM310.213 11.68C309.866 12.4267 309.593 13.12 309.393 13.76C309.206 14.4 309.113 15.04 309.113 15.68C309.113 16.8267 309.466 17.6867 310.173 18.26C310.893 18.8467 311.92 19.14 313.253 19.14C314.426 19.14 315.446 18.9133 316.313 18.46C317.18 18.02 317.773 17.4867 318.093 16.86C318.106 16.82 317.893 16.7333 317.453 16.6C317.013 16.4533 316.453 16.28 315.773 16.08C314.72 15.7733 313.973 15.4267 313.533 15.04C313.106 14.64 312.893 14.0533 312.893 13.28C312.893 12.24 313.16 11.2467 313.693 10.3C314.226 9.35333 314.933 8.59333 315.813 8.02C316.693 7.43333 317.62 7.14 318.593 7.14C318.98 7.14 319.36 7.19333 319.733 7.3C320.12 7.40667 320.4 7.53333 320.573 7.68L319.833 9.94C319.686 9.88667 319.486 9.84 319.233 9.8C318.98 9.76 318.746 9.74 318.533 9.74C317.973 9.74 317.433 9.87333 316.913 10.14C316.406 10.3933 315.973 10.7333 315.613 11.16C315.266 11.5733 315.04 12.0067 314.933 12.46C314.92 12.5133 314.913 12.5867 314.913 12.68C314.913 12.9067 315.066 13.1133 315.373 13.3C315.68 13.4733 316.266 13.6733 317.133 13.9C317.973 14.1133 318.613 14.34 319.053 14.58C319.493 14.82 319.793 15.08 319.953 15.36C320.113 15.6267 320.193 15.9467 320.193 16.32C320.193 17.2267 319.886 18.0933 319.273 18.92C318.673 19.76 317.84 20.44 316.773 20.96C315.72 21.48 314.546 21.74 313.253 21.74C312.08 21.74 311.026 21.5133 310.093 21.06C309.16 20.6067 308.426 19.9467 307.893 19.08C307.36 18.2267 307.093 17.2 307.093 16C307.093 15.1867 307.233 14.3067 307.513 13.36C307.793 12.4 308.113 11.5733 308.473 10.88L310.213 11.68ZM324.709 2.48C324.843 3.42667 324.949 4.86 325.029 6.78C325.109 8.68667 325.143 10.3333 325.129 11.72C325.116 12.4533 325.149 13.0067 325.229 13.38C325.309 13.74 325.483 14.0067 325.749 14.18C326.016 14.34 326.429 14.42 326.989 14.42H327.089L327.209 15.7L327.089 17H326.989C325.536 17 324.509 16.6067 323.909 15.82C323.309 15.0333 323.009 13.8 323.009 12.12C323.009 10.5867 322.963 8.93333 322.869 7.16C322.789 5.37333 322.676 3.98 322.529 2.98L324.709 2.48ZM326.936 14.42H327.216C329.363 14.42 330.943 14.2533 331.956 13.92C332.969 13.5733 333.536 13.0333 333.656 12.3L333.676 12.06C333.676 11.5533 333.509 11.1067 333.176 10.72C332.856 10.32 332.456 10.12 331.976 10.12C331.696 10.12 331.409 10.2133 331.116 10.4C330.836 10.5733 330.603 10.8067 330.416 11.1C330.243 11.38 330.156 11.68 330.156 12C330.156 12.48 330.449 12.9333 331.036 13.36C331.623 13.7733 332.343 14.1067 333.196 14.36C334.049 14.6133 334.849 14.74 335.596 14.74C336.196 14.74 336.676 14.6533 337.036 14.48C337.409 14.2933 337.596 14.0133 337.596 13.64C337.596 12.96 336.843 12.2333 335.336 11.46C333.843 10.6733 331.663 9.88667 328.796 9.1L329.716 6.7C332.263 7.5 334.249 8.26 335.676 8.98C337.116 9.7 338.116 10.4 338.676 11.08C339.249 11.7467 339.536 12.4667 339.536 13.24C339.536 13.72 339.436 14.28 339.236 14.92C339.009 15.6 338.549 16.1133 337.856 16.46C337.163 16.7933 336.329 16.96 335.356 16.96C334.276 16.96 333.176 16.7667 332.056 16.38C330.949 15.98 330.029 15.4267 329.296 14.72C328.576 14.0133 328.216 13.2267 328.216 12.36C328.216 12.24 328.229 12.0733 328.256 11.86C328.389 11.1 328.649 10.4067 329.036 9.78C329.423 9.14 329.883 8.63333 330.416 8.26C330.949 7.88667 331.509 7.7 332.096 7.7C332.696 7.7 333.249 7.9 333.756 8.3C334.263 8.7 334.663 9.22667 334.956 9.88C335.263 10.52 335.416 11.1933 335.416 11.9C335.416 12.1267 335.396 12.3533 335.356 12.58C335.183 13.6733 334.783 14.5467 334.156 15.2C333.543 15.84 332.669 16.3 331.536 16.58C330.416 16.86 328.976 17 327.216 17H326.936V14.42ZM352.511 22.7C351.271 22.7 350.171 22.4533 349.211 21.96C348.264 21.48 347.537 20.7733 347.031 19.84C346.524 18.9067 346.311 17.7933 346.391 16.5C346.431 15.7533 346.577 14.9667 346.831 14.14C347.097 13.3133 347.397 12.5467 347.731 11.84L349.471 12.66C349.124 13.4333 348.857 14.14 348.671 14.78C348.484 15.42 348.391 16.0533 348.391 16.68C348.391 17.8267 348.744 18.6867 349.451 19.26C350.157 19.8333 351.177 20.12 352.511 20.12C353.257 20.12 353.964 20.0333 354.631 19.86C355.311 19.6867 355.884 19.4667 356.351 19.2C356.817 18.9333 357.124 18.68 357.271 18.44C357.071 18.2 356.577 17.8467 355.791 17.38C355.004 16.9267 354.177 16.5333 353.311 16.2L353.871 13.76C354.964 13.9733 355.931 14.1333 356.771 14.24C357.624 14.3467 358.457 14.4067 359.271 14.42H359.631L359.771 15.7L359.631 17H359.271C358.364 16.9867 357.431 16.9133 356.471 16.78C355.524 16.6333 354.477 16.44 353.331 16.2L353.891 14.62C353.997 14.66 354.517 14.88 355.451 15.28C356.384 15.68 357.237 16.1867 358.011 16.8C358.784 17.4133 359.171 18 359.171 18.56C359.157 19.2 358.851 19.84 358.251 20.48C357.651 21.1333 356.844 21.6667 355.831 22.08C354.817 22.4933 353.711 22.7 352.511 22.7ZM358.576 14.42H359.196C360.382 14.42 361.342 14.3267 362.076 14.14C362.822 13.9533 363.329 13.6867 363.596 13.34C363.649 12.7533 363.322 12.0067 362.616 11.1C361.909 10.18 360.856 9.16667 359.456 8.06L359.696 5.76L367.076 2.64L367.796 4.7L361.856 7.26C362.776 8.04667 363.622 8.97333 364.396 10.04C365.169 11.1067 365.556 12.14 365.556 13.14C365.556 13.4333 365.516 13.72 365.436 14C365.142 15.0133 364.449 15.7667 363.356 16.26C362.276 16.7533 360.889 17 359.196 17H358.576V14.42ZM359.916 3.38L366.356 0.699999L366.676 1.58L359.796 4.48L359.916 3.38ZM374.895 17C374.015 17 373.308 16.6867 372.775 16.06C372.255 15.42 371.815 14.5133 371.455 13.34L373.035 12.38C373.222 13.1267 373.455 13.6533 373.735 13.96C374.015 14.2667 374.402 14.42 374.895 14.42H375.055L375.195 15.7L375.055 17H374.895ZM367.035 20.62C367.902 20.2867 368.695 19.88 369.415 19.4C370.135 18.92 370.702 18.4333 371.115 17.94C371.528 17.4467 371.735 17.0067 371.735 16.62C371.735 16.3267 371.655 15.84 371.495 15.16C371.335 14.4667 371.122 13.6 370.855 12.56C370.748 12.1867 370.675 11.9067 370.635 11.72L372.635 10.94C372.942 11.8733 373.188 12.8667 373.375 13.92C373.575 14.96 373.675 15.86 373.675 16.62C373.675 17.8867 373.155 19.0667 372.115 20.16C371.088 21.2533 369.742 22.1333 368.075 22.8L367.035 20.62ZM371.475 3.84L372.815 5.2L372.375 5.64L371.475 6.54C371.035 6.08667 370.588 5.64 370.135 5.2L371.475 3.84ZM371.855 7.5C372.522 6.83333 372.855 6.5 372.855 6.5L373.375 5.98C373.868 6.5 374.375 7.00667 374.895 7.5L374.375 8.02C374.375 8.02 374.042 8.35333 373.375 9.02L371.855 7.5ZM368.095 7.5C368.762 6.83333 369.095 6.5 369.095 6.5L369.615 5.98C370.108 6.5 370.615 7.00667 371.135 7.5L370.615 8.02C370.615 8.02 370.282 8.35333 369.615 9.02L368.095 7.5ZM375.505 14.42H376.405C377.765 14.42 378.725 14.3 379.285 14.06C379.845 13.8067 380.125 13.42 380.125 12.9C380.112 12.5667 379.965 11.9933 379.685 11.18C379.418 10.3533 379.205 9.76667 379.045 9.42L380.925 8.4C381.192 9 381.458 9.74667 381.725 10.64C381.992 11.5333 382.125 12.32 382.125 13C382.112 14.3067 381.658 15.3 380.765 15.98C379.872 16.66 378.545 17 376.785 17H375.505V14.42ZM376.545 18.76L378.105 20.3L376.545 21.88L374.985 20.3L376.545 18.76ZM380.065 18.76L381.625 20.3L380.065 21.88L378.505 20.3L380.065 18.76ZM374.905 17L374.785 15.7L374.905 14.42H375.725V17H374.905ZM383.593 20.54C385.82 20.06 387.446 19.46 388.473 18.74C389.5 18.02 390.013 17.0933 390.013 15.96C390 15.16 389.886 14.38 389.673 13.62C389.473 12.8467 389.18 12.2133 388.793 11.72C388.406 11.2267 387.966 10.98 387.473 10.98C387.193 10.98 386.926 11.0933 386.673 11.32C386.433 11.5333 386.24 11.8067 386.093 12.14C385.946 12.4733 385.873 12.7867 385.873 13.08C385.873 13.2933 385.926 13.4867 386.033 13.66C386.233 13.94 386.593 14.1533 387.113 14.3C387.646 14.4467 388.246 14.52 388.913 14.52C389.513 14.52 390.053 14.4733 390.533 14.38V16.8C389.84 16.9733 389.16 17.06 388.493 17.06C387.56 17.06 386.72 16.9 385.973 16.58C385.226 16.26 384.7 15.7733 384.393 15.12C384.166 14.6533 384.053 14.1067 384.053 13.48C384.053 12.72 384.213 11.9667 384.533 11.22C384.853 10.46 385.286 9.84 385.833 9.36C386.393 8.86667 387 8.62 387.653 8.62C388.453 8.62 389.173 8.96667 389.813 9.66C390.453 10.3533 390.946 11.2467 391.293 12.34C391.653 13.4333 391.833 14.5533 391.833 15.7C391.833 17.5 391.173 19.02 389.853 20.26C388.533 21.5133 386.706 22.36 384.373 22.8L383.593 20.54Z" fill="#2E8B57"/>
<path d="M410 12C410 14.2091 411.791 16 414 16C416.209 16 418 14.2091 418 12C418 9.79086 416.209 8 414 8C411.791 8 410 9.79086 410 12ZM414 12.75L675 12.75L675 11.25L414 11.25L414 12.75Z" fill="#2E8B57"/>
</svg>
