<svg width="40" height="40" viewBox="0 0 40 40" fill="none" xmlns="http://www.w3.org/2000/svg">
<path d="M25.0007 3.33331V20C25.0007 21.8333 23.5007 23.3333 21.6673 23.3333H3.33398V9.99998C3.33398 6.31665 6.31732 3.33331 10.0007 3.33331H25.0007Z" stroke="#397081" stroke-width="2.5" stroke-linecap="round" stroke-linejoin="round"/>
<path d="M36.6673 23.3333V28.3333C36.6673 31.1 34.434 33.3333 31.6673 33.3333H30.0007C30.0007 31.5 28.5007 30 26.6673 30C24.834 30 23.334 31.5 23.334 33.3333H16.6673C16.6673 31.5 15.1673 30 13.334 30C11.5007 30 10.0007 31.5 10.0007 33.3333H8.33398C5.56732 33.3333 3.33398 31.1 3.33398 28.3333V23.3333H21.6673C23.5007 23.3333 25.0007 21.8333 25.0007 20V8.33331H28.0673C29.2673 8.33331 30.3673 8.98333 30.9673 10.0167L33.8173 15H31.6673C30.7507 15 30.0007 15.75 30.0007 16.6666V21.6666C30.0007 22.5833 30.7507 23.3333 31.6673 23.3333H36.6673Z" stroke="#2E8B57" stroke-width="2.5" stroke-linecap="round" stroke-linejoin="round"/>
<path d="M13.3333 36.6667C15.1743 36.6667 16.6667 35.1743 16.6667 33.3333C16.6667 31.4924 15.1743 30 13.3333 30C11.4924 30 10 31.4924 10 33.3333C10 35.1743 11.4924 36.6667 13.3333 36.6667Z" stroke="#2E8B57" stroke-width="2.5" stroke-linecap="round" stroke-linejoin="round"/>
<path d="M26.6673 36.6667C28.5083 36.6667 30.0007 35.1743 30.0007 33.3333C30.0007 31.4924 28.5083 30 26.6673 30C24.8264 30 23.334 31.4924 23.334 33.3333C23.334 35.1743 24.8264 36.6667 26.6673 36.6667Z" stroke="#2E8B57" stroke-width="2.5" stroke-linecap="round" stroke-linejoin="round"/>
<path d="M36.6667 20V23.3333H31.6667C30.75 23.3333 30 22.5833 30 21.6667V16.6667C30 15.75 30.75 15 31.6667 15H33.8167L36.6667 20Z" stroke="#2E8B57" stroke-width="2.5" stroke-linecap="round" stroke-linejoin="round"/>
</svg>
