<svg width="24" height="24" viewBox="0 0 24 24" fill="none" xmlns="http://www.w3.org/2000/svg">
<path d="M12 10.5204C11.59 10.5204 11.25 10.1804 11.25 9.77043V6.44043C11.25 6.03043 11.59 5.69043 12 5.69043C12.41 5.69043 12.75 6.03043 12.75 6.44043V9.77043C12.75 10.1904 12.41 10.5204 12 10.5204Z" fill="#E9C600"/>
<path d="M12.02 20.3502C9.43999 20.3502 6.86999 19.9402 4.41999 19.1202C3.50999 18.8202 2.81999 18.1702 2.51999 17.3502C2.21999 16.5302 2.31999 15.5902 2.80999 14.7702L4.07999 12.6502C4.35999 12.1802 4.60999 11.3002 4.60999 10.7502V8.65023C4.60999 4.56023 7.92999 1.24023 12.02 1.24023C16.11 1.24023 19.43 4.56023 19.43 8.65023V10.7502C19.43 11.2902 19.68 12.1802 19.96 12.6502L21.23 14.7702C21.7 15.5502 21.78 16.4802 21.47 17.3302C21.16 18.1802 20.48 18.8302 19.62 19.1202C17.17 19.9502 14.6 20.3502 12.02 20.3502ZM12.02 2.75023C8.75999 2.75023 6.10999 5.40023 6.10999 8.66023V10.7602C6.10999 11.5702 5.78999 12.7402 5.36999 13.4302L4.09999 15.5602C3.83999 15.9902 3.77999 16.4502 3.92999 16.8502C4.07999 17.2502 4.41999 17.5502 4.89999 17.7102C9.49999 19.2402 14.56 19.2402 19.16 17.7102C19.59 17.5702 19.92 17.2502 20.07 16.8302C20.23 16.4102 20.18 15.9502 19.95 15.5602L18.68 13.4402C18.26 12.7502 17.94 11.5802 17.94 10.7702V8.67023C17.93 5.40023 15.28 2.75023 12.02 2.75023Z" fill="#E9C600"/>
<path d="M12 22.9003C10.93 22.9003 9.88004 22.4603 9.12004 21.7003C8.36004 20.9403 7.92004 19.8903 7.92004 18.8203H9.42004C9.42004 19.5003 9.70004 20.1603 10.18 20.6403C10.66 21.1203 11.32 21.4003 12 21.4003C13.42 21.4003 14.58 20.2403 14.58 18.8203H16.08C16.08 21.0703 14.25 22.9003 12 22.9003Z" fill="#E9C600"/>
</svg>
