<svg width="32" height="32" viewBox="0 0 32 32" fill="none" xmlns="http://www.w3.org/2000/svg">
<path d="M0 8C0 5.19974 0 3.79961 0.544967 2.73005C1.02433 1.78924 1.78924 1.02433 2.73005 0.544967C3.79961 0 5.19974 0 8 0H24C26.8003 0 28.2004 0 29.27 0.544967C30.2108 1.02433 30.9757 1.78924 31.455 2.73005C32 3.79961 32 5.19974 32 8V24C32 26.8003 32 28.2004 31.455 29.27C30.9757 30.2108 30.2108 30.9757 29.27 31.455C28.2004 32 26.8003 32 24 32H8C5.19974 32 3.79961 32 2.73005 31.455C1.78924 30.9757 1.02433 30.2108 0.544967 29.27C0 28.2004 0 26.8003 0 24V8Z" fill="#2E8B57"/>
<path d="M13.5704 22.82C13.3804 22.82 13.1904 22.75 13.0404 22.6L6.97043 16.53C6.68043 16.24 6.68043 15.76 6.97043 15.47L13.0404 9.4C13.3304 9.11 13.8104 9.11 14.1004 9.4C14.3904 9.69 14.3904 10.17 14.1004 10.46L8.56043 16L14.1004 21.54C14.3904 21.83 14.3904 22.31 14.1004 22.6C13.9604 22.75 13.7604 22.82 13.5704 22.82Z" fill="white"/>
<path d="M24.4999 16.75H7.66992C7.25992 16.75 6.91992 16.41 6.91992 16C6.91992 15.59 7.25992 15.25 7.66992 15.25H24.4999C24.9099 15.25 25.2499 15.59 25.2499 16C25.2499 16.41 24.9099 16.75 24.4999 16.75Z" fill="white"/>
</svg>
