<svg width="1440" height="18" viewBox="0 0 1440 18" fill="none" xmlns="http://www.w3.org/2000/svg">
<rect width="1440" height="18" fill="#53A176"/>
<path d="M630.249 5.88L631.345 8.472C631.446 8.71733 631.561 8.888 631.689 8.984C631.817 9.07467 631.993 9.12 632.217 9.12H632.305L632.353 9.56L632.305 10H632.217C631.87 10 631.577 9.90933 631.337 9.728C631.097 9.54133 630.889 9.25067 630.713 8.856L629.585 6.232L630.249 5.88ZM628.217 8.808C628.425 8.92533 628.622 9.02133 628.809 9.096C629.001 9.16533 629.233 9.2 629.505 9.2C630.038 9.2 630.515 9.024 630.937 8.672L631.329 9.208C631.19 9.352 631.057 9.47733 630.929 9.584C630.801 9.69067 630.619 9.792 630.385 9.888C630.155 9.984 629.886 10.032 629.577 10.032C629.198 10.032 628.873 9.97333 628.601 9.856C628.329 9.73867 628.083 9.6 627.865 9.44L628.217 8.808ZM636.706 9.12C636.892 9.12 637.034 9.06933 637.13 8.968C637.226 8.86133 637.274 8.712 637.274 8.52C637.274 8.34933 637.22 8.10667 637.114 7.792C637.012 7.472 636.922 7.22133 636.842 7.04L637.49 6.68C637.596 6.90933 637.703 7.20533 637.81 7.568C637.922 7.93067 637.978 8.25333 637.978 8.536C637.978 8.808 637.922 9.056 637.81 9.28C637.703 9.49867 637.554 9.67467 637.362 9.808C637.17 9.936 636.951 10 636.706 10H636.69V9.12H636.706ZM634.538 10V9.12H634.562C634.716 9.12 634.852 9.07733 634.97 8.992C635.087 8.90133 635.194 8.77067 635.29 8.6C635.407 8.38133 635.498 8.048 635.562 7.6L636.234 7.632C636.17 7.968 636.138 8.232 636.138 8.424C636.138 8.65333 636.183 8.82667 636.274 8.944C636.364 9.06133 636.508 9.12 636.706 9.12H636.722L636.77 9.56L636.722 10H636.706C636.402 10 636.156 9.91467 635.97 9.744C635.783 9.568 635.663 9.32267 635.61 9.008L635.762 8.992C635.639 9.29067 635.471 9.53333 635.258 9.72C635.05 9.90667 634.815 10 634.554 10H634.538ZM632.242 10L632.194 9.56L632.242 9.12H632.282C632.474 9.12 632.652 9.07733 632.818 8.992C632.988 8.90667 633.119 8.79733 633.21 8.664C633.316 8.52533 633.399 8.37333 633.458 8.208C633.522 8.04267 633.578 7.864 633.626 7.672L634.298 7.744C634.292 7.77067 634.263 7.88 634.21 8.072C634.156 8.264 634.13 8.44533 634.13 8.616C634.13 8.78133 634.162 8.90667 634.226 8.992C634.295 9.07733 634.402 9.12 634.546 9.12H634.562L634.61 9.56L634.562 10H634.53C634.29 10 634.087 9.93067 633.922 9.792C633.756 9.65333 633.652 9.46667 633.61 9.232C633.258 9.744 632.812 10 632.274 10H632.242ZM635.898 4.464L636.066 4.632C636.295 4.86133 636.41 4.976 636.41 4.976L635.898 5.488L635.394 4.976L635.898 4.464ZM636.066 5.88C636.066 5.88 636.194 5.752 636.45 5.496L636.642 5.304L637.218 5.88L637.026 6.072C636.77 6.328 636.642 6.456 636.642 6.456C636.455 6.25867 636.263 6.06667 636.066 5.88ZM634.578 5.88C634.578 5.88 634.706 5.752 634.962 5.496L635.154 5.304L635.73 5.88L635.538 6.072C635.282 6.328 635.154 6.456 635.154 6.456C634.967 6.25867 634.775 6.06667 634.578 5.88ZM639.506 4.312C639.549 4.616 639.583 5.10133 639.61 5.768C639.637 6.42933 639.65 7.04533 639.65 7.616V7.968C639.645 8.288 639.658 8.52533 639.69 8.68C639.722 8.83467 639.794 8.94667 639.906 9.016C640.018 9.08533 640.197 9.12 640.442 9.12H640.482L640.53 9.56L640.482 10H640.442C639.877 10 639.479 9.85333 639.25 9.56C639.026 9.26133 638.914 8.78933 638.914 8.144C638.914 7.55733 638.898 6.89067 638.866 6.144C638.839 5.392 638.799 4.83733 638.746 4.48L639.506 4.312ZM640.405 9.12H640.821C641.237 9.12 641.536 9.06933 641.717 8.968C641.899 8.86667 641.989 8.70933 641.989 8.496C641.989 8.352 641.933 8.10667 641.821 7.76C641.715 7.408 641.629 7.16533 641.565 7.032L642.229 6.672C642.331 6.88 642.435 7.17067 642.541 7.544C642.648 7.912 642.701 8.22933 642.701 8.496C642.701 8.992 642.539 9.368 642.213 9.624C641.893 9.87467 641.429 10 640.821 10H640.405V9.12ZM640.381 11.328C640.589 11.1093 640.797 10.9013 641.005 10.704C641.213 10.9013 641.421 11.1093 641.629 11.328L641.005 11.952L640.381 11.328ZM648.228 12.256C647.759 12.256 647.343 12.168 646.98 11.992C646.618 11.816 646.332 11.5573 646.124 11.216C645.916 10.88 645.812 10.48 645.812 10.016C645.812 9.696 645.866 9.352 645.972 8.984C646.084 8.616 646.212 8.28533 646.356 7.992L646.972 8.28C646.839 8.57867 646.732 8.864 646.652 9.136C646.572 9.40267 646.532 9.66133 646.532 9.912C646.532 10.3973 646.679 10.7627 646.972 11.008C647.266 11.2587 647.684 11.384 648.228 11.384C648.538 11.384 648.831 11.344 649.108 11.264C649.391 11.184 649.626 11.0853 649.812 10.968C649.999 10.856 650.114 10.752 650.156 10.656C650.098 10.56 649.908 10.4107 649.588 10.208C649.268 10.0053 648.93 9.83467 648.572 9.696L648.756 8.864C649.183 8.94933 649.562 9.01333 649.892 9.056C650.228 9.09867 650.554 9.12 650.868 9.12H651.036L651.084 9.56L651.036 10H650.868C650.516 10 650.17 9.976 649.828 9.928C649.487 9.87467 649.068 9.79733 648.572 9.696L648.764 9.144L648.94 9.224C649.468 9.45333 649.919 9.688 650.292 9.928C650.666 10.1627 650.85 10.416 650.844 10.688C650.839 10.9387 650.716 11.1867 650.476 11.432C650.236 11.6773 649.916 11.8747 649.516 12.024C649.122 12.1787 648.692 12.256 648.228 12.256ZM652.473 8.504C652.804 8.728 653.103 8.904 653.369 9.032C653.636 9.16 653.841 9.224 653.985 9.224C654.028 9.224 654.071 9.21333 654.113 9.192C654.193 9.14933 654.255 9.08 654.297 8.984C654.34 8.88267 654.361 8.768 654.361 8.64C654.361 8.39467 654.297 8.17067 654.169 7.968C654.041 7.76533 653.876 7.664 653.673 7.664C653.513 7.664 653.343 7.77333 653.161 7.992C652.985 8.21067 652.791 8.54667 652.577 9C652.417 9.33067 652.207 9.58133 651.945 9.752C651.684 9.91733 651.385 10 651.049 10H650.905L650.921 9.12H651.065C651.279 9.12 651.476 9.05867 651.657 8.936C651.839 8.81333 651.993 8.62667 652.121 8.376C652.356 7.91733 652.593 7.55467 652.833 7.288C653.073 7.02133 653.335 6.88 653.617 6.864C653.9 6.848 654.145 6.92267 654.353 7.088C654.567 7.25333 654.729 7.472 654.841 7.744C654.953 8.016 655.009 8.30133 655.009 8.6C655.009 8.89333 654.953 9.16267 654.841 9.408C654.729 9.648 654.564 9.82933 654.345 9.952C654.239 10.0107 654.116 10.04 653.977 10.04C653.556 10.04 652.94 9.77067 652.129 9.232L652.473 8.504ZM660.693 5.96C660.784 6.92 660.861 7.65067 660.925 8.152C660.952 8.424 660.989 8.62667 661.037 8.76C661.085 8.89333 661.157 8.98667 661.253 9.04C661.349 9.09333 661.49 9.12 661.677 9.12H661.797L661.845 9.56L661.797 10H661.677C661.234 10 660.896 9.86667 660.661 9.6C660.426 9.328 660.274 8.88267 660.205 8.264C660.178 7.98133 660.122 7.512 660.037 6.856C660.021 6.69067 659.992 6.44267 659.949 6.112L660.693 5.96ZM660.629 9.44C660.309 9.54667 659.986 9.6 659.661 9.6C659.208 9.6 658.837 9.496 658.549 9.288C658.266 9.08 658.125 8.79467 658.125 8.432C658.125 7.98933 658.312 7.616 658.685 7.312C659.058 7.00267 659.56 6.73867 660.189 6.52L660.349 7.32C659.949 7.42133 659.597 7.56267 659.293 7.744C658.994 7.92533 658.837 8.09867 658.821 8.264C658.805 8.40267 658.869 8.52 659.013 8.616C659.162 8.70667 659.36 8.752 659.605 8.752C659.866 8.752 660.146 8.69867 660.445 8.592L660.629 9.44ZM664.174 9.12L664.222 9.56L664.174 10H664.086C663.846 10 663.622 9.928 663.414 9.784C663.211 9.63467 663.049 9.432 662.926 9.176C662.803 8.92 662.742 8.63467 662.742 8.32C662.747 8.192 662.726 7.6 662.678 6.544C662.63 5.488 662.59 4.8 662.558 4.48L663.318 4.32C663.35 4.64 663.379 5.26933 663.406 6.208C663.438 7.14133 663.457 7.66933 663.462 7.792L663.478 8.328C663.51 8.856 663.713 9.12 664.086 9.12H664.174ZM661.71 9.12H661.918C662.217 9.12 662.43 9.05867 662.558 8.936C662.686 8.808 662.747 8.60267 662.742 8.32L663.302 8.384C663.302 8.86933 663.182 9.26133 662.942 9.56C662.707 9.85333 662.369 10 661.926 10H661.71V9.12ZM664.085 9.12H664.189C665.026 9.12 665.655 9.05067 666.077 8.912C666.503 8.77333 666.754 8.53333 666.829 8.192C666.829 7.90933 666.789 7.624 666.709 7.336C666.629 7.04267 666.514 6.8 666.365 6.608C666.215 6.41067 666.042 6.312 665.845 6.312C665.722 6.312 665.607 6.352 665.501 6.432C665.399 6.512 665.317 6.616 665.253 6.744C665.194 6.86667 665.165 6.98933 665.165 7.112C665.165 7.21333 665.189 7.304 665.237 7.384C665.317 7.50667 665.463 7.60267 665.677 7.672C665.895 7.74133 666.141 7.776 666.413 7.776C666.621 7.776 666.81 7.75733 666.981 7.72V8.528C666.751 8.576 666.514 8.6 666.269 8.6C665.901 8.6 665.573 8.54133 665.285 8.424C665.002 8.30133 664.797 8.12 664.669 7.88C664.567 7.68267 664.517 7.46133 664.517 7.216C664.517 6.93867 664.575 6.66933 664.693 6.408C664.815 6.14133 664.981 5.92533 665.189 5.76C665.402 5.58933 665.637 5.504 665.893 5.504C666.191 5.504 666.458 5.62133 666.693 5.856C666.927 6.08533 667.109 6.38667 667.237 6.76C667.365 7.128 667.429 7.50933 667.429 7.904C667.429 8.01067 667.426 8.09067 667.421 8.144C667.378 8.74133 667.087 9.2 666.549 9.52C666.01 9.84 665.223 10 664.189 10H664.085V9.12ZM664.837 4.2C665.093 3.944 665.221 3.816 665.221 3.816L665.805 4.392C665.613 4.58933 665.418 4.784 665.221 4.976L664.645 4.392L664.837 4.2ZM666.245 4.2C666.501 3.944 666.629 3.816 666.629 3.816L667.213 4.392C667.021 4.58933 666.826 4.784 666.629 4.976L666.053 4.392L666.245 4.2ZM673.115 5.96C673.206 6.92 673.283 7.65067 673.347 8.152C673.374 8.424 673.411 8.62667 673.459 8.76C673.507 8.89333 673.579 8.98667 673.675 9.04C673.771 9.09333 673.912 9.12 674.099 9.12H674.219L674.267 9.56L674.219 10H674.099C673.656 10 673.318 9.86667 673.083 9.6C672.848 9.328 672.696 8.88267 672.627 8.264C672.6 7.98133 672.544 7.512 672.459 6.856C672.443 6.69067 672.414 6.44267 672.371 6.112L673.115 5.96ZM673.051 9.44C672.731 9.54667 672.408 9.6 672.083 9.6C671.63 9.6 671.259 9.496 670.971 9.288C670.688 9.08 670.547 8.79467 670.547 8.432C670.547 7.98933 670.734 7.616 671.107 7.312C671.48 7.00267 671.982 6.73867 672.611 6.52L672.771 7.32C672.371 7.42133 672.019 7.56267 671.715 7.744C671.416 7.92533 671.259 8.09867 671.243 8.264C671.227 8.40267 671.291 8.52 671.435 8.616C671.584 8.70667 671.782 8.752 672.027 8.752C672.288 8.752 672.568 8.69867 672.867 8.592L673.051 9.44ZM674.132 9.12H674.548C674.964 9.12 675.263 9.06933 675.444 8.968C675.625 8.86667 675.716 8.70933 675.716 8.496C675.716 8.352 675.66 8.10667 675.548 7.76C675.441 7.408 675.356 7.16533 675.292 7.032L675.956 6.672C676.057 6.88 676.161 7.17067 676.268 7.544C676.375 7.912 676.428 8.22933 676.428 8.496C676.428 8.992 676.265 9.368 675.94 9.624C675.62 9.87467 675.156 10 674.548 10H674.132V9.12ZM674.108 11.328C674.316 11.1093 674.524 10.9013 674.732 10.704C674.94 10.9013 675.148 11.1093 675.356 11.328L674.732 11.952L674.108 11.328ZM680.699 7.896C680.565 8.19467 680.459 8.48 680.379 8.752C680.299 9.01867 680.259 9.27733 680.259 9.528C680.259 10.008 680.405 10.3707 680.699 10.616C680.992 10.8667 681.411 10.992 681.955 10.992C682.296 10.992 682.603 10.9413 682.875 10.84C683.152 10.744 683.379 10.616 683.555 10.456C683.736 10.3013 683.861 10.1387 683.931 9.968C683.936 9.94133 683.867 9.90133 683.723 9.848C683.579 9.78933 683.333 9.712 682.987 9.616C682.571 9.49867 682.277 9.368 682.107 9.224C681.936 9.07467 681.851 8.85867 681.851 8.576C681.851 8.17067 681.952 7.784 682.155 7.416C682.363 7.048 682.637 6.752 682.979 6.528C683.325 6.304 683.688 6.192 684.067 6.192C684.211 6.192 684.357 6.21333 684.507 6.256C684.661 6.29333 684.773 6.33867 684.843 6.392L684.587 7.16C684.523 7.13333 684.44 7.112 684.339 7.096C684.237 7.08 684.144 7.072 684.059 7.072C683.819 7.072 683.589 7.13067 683.371 7.248C683.157 7.36533 682.979 7.51467 682.835 7.696C682.696 7.87733 682.608 8.064 682.571 8.256C682.565 8.27733 682.563 8.30933 682.563 8.352C682.563 8.45333 682.621 8.54133 682.739 8.616C682.856 8.68533 683.091 8.768 683.443 8.864C683.773 8.95467 684.027 9.04267 684.203 9.128C684.379 9.21333 684.499 9.30667 684.563 9.408C684.627 9.504 684.659 9.624 684.659 9.768C684.659 10.1147 684.541 10.448 684.307 10.768C684.077 11.0933 683.755 11.3573 683.339 11.56C682.928 11.768 682.467 11.872 681.955 11.872C681.469 11.872 681.04 11.776 680.667 11.584C680.293 11.392 680.005 11.1147 679.803 10.752C679.605 10.3893 679.52 9.96267 679.547 9.472C679.557 9.168 679.613 8.85067 679.715 8.52C679.821 8.184 679.941 7.88 680.075 7.608L680.699 7.896ZM688.212 10C687.871 10 687.602 9.88 687.404 9.64C687.212 9.39467 687.05 9.048 686.916 8.6L687.452 8.272C687.527 8.58667 687.62 8.808 687.732 8.936C687.85 9.05867 688.01 9.12 688.212 9.12H688.268L688.316 9.56L688.268 10H688.212ZM685.156 11.56C685.503 11.432 685.815 11.272 686.092 11.08C686.375 10.888 686.596 10.688 686.756 10.48C686.922 10.2773 687.004 10.088 687.004 9.912C687.004 9.688 686.863 9.02667 686.58 7.928L687.284 7.656C687.407 8.03467 687.506 8.43467 687.58 8.856C687.66 9.272 687.7 9.624 687.7 9.912C687.7 10.4027 687.495 10.864 687.084 11.296C686.679 11.7333 686.151 12.072 685.5 12.312L685.156 11.56ZM688.163 9.12H688.355C688.936 9.12 689.397 9.08533 689.739 9.016C690.085 8.94667 690.341 8.848 690.507 8.72C690.672 8.58667 690.789 8.41867 690.859 8.216C690.869 8.072 690.848 7.93067 690.795 7.792C690.747 7.65333 690.669 7.53867 690.563 7.448C690.456 7.35733 690.333 7.312 690.195 7.312C690.013 7.312 689.853 7.392 689.715 7.552C689.576 7.70667 689.493 7.89333 689.467 8.112C689.461 8.288 689.531 8.45333 689.675 8.608C689.819 8.76267 690.029 8.888 690.307 8.984C690.589 9.07467 690.923 9.12 691.307 9.12H692.083L692.131 9.56L692.083 10H691.603C691.064 10 690.579 9.92 690.147 9.76C689.72 9.6 689.384 9.384 689.139 9.112C688.899 8.84 688.779 8.54133 688.779 8.216C688.779 8.17333 688.784 8.10933 688.795 8.024C688.837 7.736 688.928 7.472 689.067 7.232C689.211 6.98667 689.384 6.79467 689.587 6.656C689.795 6.512 690.011 6.44 690.235 6.44C690.485 6.44 690.709 6.52 690.907 6.68C691.109 6.84 691.267 7.04533 691.379 7.296C691.491 7.54667 691.547 7.80267 691.547 8.064C691.547 8.112 691.541 8.184 691.531 8.28C691.451 8.86667 691.147 9.30133 690.619 9.584C690.096 9.86133 689.341 10 688.355 10H688.163V9.12ZM689.651 5.36C689.859 5.14133 690.067 4.93333 690.275 4.736C690.483 4.93333 690.691 5.14133 690.899 5.36L690.275 5.984L689.651 5.36ZM696.463 9.12C696.65 9.12 696.791 9.06933 696.887 8.968C696.983 8.86133 697.031 8.712 697.031 8.52C697.031 8.34933 696.978 8.10667 696.871 7.792C696.77 7.472 696.679 7.22133 696.599 7.04L697.247 6.68C697.354 6.90933 697.461 7.20533 697.567 7.568C697.679 7.93067 697.735 8.25333 697.735 8.536C697.735 8.808 697.679 9.056 697.567 9.28C697.461 9.49867 697.311 9.67467 697.119 9.808C696.927 9.936 696.709 10 696.463 10H696.447V9.12H696.463ZM694.295 10V9.12H694.319C694.474 9.12 694.61 9.07733 694.727 8.992C694.845 8.90133 694.951 8.77067 695.047 8.6C695.165 8.38133 695.255 8.048 695.319 7.6L695.991 7.632C695.927 7.968 695.895 8.232 695.895 8.424C695.895 8.65333 695.941 8.82667 696.031 8.944C696.122 9.06133 696.266 9.12 696.463 9.12H696.479L696.527 9.56L696.479 10H696.463C696.159 10 695.914 9.91467 695.727 9.744C695.541 9.568 695.421 9.32267 695.367 9.008L695.519 8.992C695.397 9.29067 695.229 9.53333 695.015 9.72C694.807 9.90667 694.573 10 694.311 10H694.295ZM691.999 10L691.951 9.56L691.999 9.12H692.039C692.231 9.12 692.41 9.07733 692.575 8.992C692.746 8.90667 692.877 8.79733 692.967 8.664C693.074 8.52533 693.157 8.37333 693.215 8.208C693.279 8.04267 693.335 7.864 693.383 7.672L694.055 7.744C694.05 7.77067 694.021 7.88 693.967 8.072C693.914 8.264 693.887 8.44533 693.887 8.616C693.887 8.78133 693.919 8.90667 693.983 8.992C694.053 9.07733 694.159 9.12 694.303 9.12H694.319L694.367 9.56L694.319 10H694.287C694.047 10 693.845 9.93067 693.679 9.792C693.514 9.65333 693.41 9.46667 693.367 9.232C693.015 9.744 692.57 10 692.031 10H691.999ZM702.405 7.128C701.834 7.60267 701.53 8.03467 701.493 8.424C701.487 8.45067 701.485 8.488 701.485 8.536C701.485 8.728 701.551 8.88267 701.685 9C701.823 9.112 702.023 9.168 702.285 9.168C702.525 9.168 702.722 9.11733 702.877 9.016C703.037 8.90933 703.125 8.77333 703.141 8.608C703.135 8.31467 702.991 8.024 702.709 7.736C702.426 7.44267 701.975 7.10667 701.357 6.728L701.797 6.04C702.474 6.44 702.978 6.84267 703.309 7.248C703.645 7.648 703.813 8.072 703.813 8.52C703.813 8.808 703.743 9.06667 703.605 9.296C703.471 9.52533 703.285 9.704 703.045 9.832C702.81 9.96 702.546 10.024 702.253 10.024C701.799 10.024 701.442 9.89867 701.181 9.648C700.925 9.39733 700.797 9.07733 700.797 8.688C700.797 8.53867 700.815 8.39733 700.853 8.264C700.933 7.944 701.069 7.648 701.261 7.376C701.453 7.104 701.687 6.83467 701.965 6.568L702.405 7.128ZM705.303 4.312C705.346 4.616 705.38 5.10133 705.407 5.768C705.434 6.42933 705.447 7.04533 705.447 7.616V7.968C705.442 8.288 705.455 8.52533 705.487 8.68C705.519 8.83467 705.591 8.94667 705.703 9.016C705.815 9.08533 705.994 9.12 706.239 9.12H706.279L706.327 9.56L706.279 10H706.239C705.674 10 705.276 9.85333 705.047 9.56C704.823 9.26133 704.711 8.78933 704.711 8.144C704.711 7.55733 704.695 6.89067 704.663 6.144C704.636 5.392 704.596 4.83733 704.543 4.48L705.303 4.312ZM710.26 10C709.999 10 709.759 9.92533 709.54 9.776C709.321 9.62667 709.113 9.424 708.916 9.168C708.724 8.912 708.457 8.528 708.116 8.016C708.105 8 708.089 7.97867 708.068 7.952C708.052 7.92533 708.033 7.896 708.012 7.864L708.476 7.392C708.753 7.824 708.985 8.16 709.172 8.4C709.359 8.64 709.537 8.82133 709.708 8.944C709.884 9.06133 710.068 9.12 710.26 9.12H710.372L710.42 9.56L710.372 10H710.26ZM706.124 9.12H706.348C707.351 9.12 707.951 8.96 708.148 8.64C708.164 8.592 708.172 8.54133 708.172 8.488C708.172 8.24267 708.025 7.936 707.732 7.568C707.439 7.2 707.028 6.81067 706.5 6.4L706.588 5.6L709.532 4.344L709.772 5.048L707.332 6.104C707.727 6.43467 708.079 6.81867 708.388 7.256C708.703 7.688 708.86 8.10133 708.86 8.496C708.86 8.61867 708.839 8.744 708.796 8.872C708.673 9.256 708.401 9.54133 707.98 9.728C707.559 9.90933 707.015 10 706.348 10H706.124V9.12ZM706.676 4.656L709.236 3.576L709.356 3.912L706.636 5.064L706.676 4.656ZM714.76 9.12C714.947 9.12 715.088 9.06933 715.184 8.968C715.28 8.86133 715.328 8.712 715.328 8.52C715.328 8.34933 715.275 8.10667 715.168 7.792C715.067 7.472 714.976 7.22133 714.896 7.04L715.544 6.68C715.651 6.90933 715.758 7.20533 715.864 7.568C715.976 7.93067 716.032 8.25333 716.032 8.536C716.032 8.808 715.976 9.056 715.864 9.28C715.758 9.49867 715.608 9.67467 715.416 9.808C715.224 9.936 715.006 10 714.76 10H714.744V9.12H714.76ZM712.592 10V9.12H712.616C712.771 9.12 712.907 9.07733 713.024 8.992C713.142 8.90133 713.248 8.77067 713.344 8.6C713.462 8.38133 713.552 8.048 713.616 7.6L714.288 7.632C714.224 7.968 714.192 8.232 714.192 8.424C714.192 8.65333 714.238 8.82667 714.328 8.944C714.419 9.06133 714.563 9.12 714.76 9.12H714.776L714.824 9.56L714.776 10H714.76C714.456 10 714.211 9.91467 714.024 9.744C713.838 9.568 713.718 9.32267 713.664 9.008L713.816 8.992C713.694 9.29067 713.526 9.53333 713.312 9.72C713.104 9.90667 712.87 10 712.608 10H712.592ZM710.296 10L710.248 9.56L710.296 9.12H710.336C710.528 9.12 710.707 9.07733 710.872 8.992C711.043 8.90667 711.174 8.79733 711.264 8.664C711.371 8.52533 711.454 8.37333 711.512 8.208C711.576 8.04267 711.632 7.864 711.68 7.672L712.352 7.744C712.347 7.77067 712.318 7.88 712.264 8.072C712.211 8.264 712.184 8.44533 712.184 8.616C712.184 8.78133 712.216 8.90667 712.28 8.992C712.35 9.07733 712.456 9.12 712.6 9.12H712.616L712.664 9.56L712.616 10H712.584C712.344 10 712.142 9.93067 711.976 9.792C711.811 9.65333 711.707 9.46667 711.664 9.232C711.312 9.744 710.867 10 710.328 10H710.296ZM713.952 4.464L714.12 4.632C714.35 4.86133 714.464 4.976 714.464 4.976L713.952 5.488L713.448 4.976L713.952 4.464ZM714.12 5.88C714.12 5.88 714.248 5.752 714.504 5.496L714.696 5.304L715.272 5.88L715.08 6.072C714.824 6.328 714.696 6.456 714.696 6.456C714.51 6.25867 714.318 6.06667 714.12 5.88ZM712.632 5.88C712.632 5.88 712.76 5.752 713.016 5.496L713.208 5.304L713.784 5.88L713.592 6.072C713.336 6.328 713.208 6.456 713.208 6.456C713.022 6.25867 712.83 6.06667 712.632 5.88ZM716.553 11.536C717.427 11.3493 718.07 11.1013 718.481 10.792C718.891 10.488 719.097 10.104 719.097 9.64C719.091 9.336 719.049 9.032 718.969 8.728C718.889 8.424 718.771 8.17067 718.617 7.968C718.467 7.76 718.294 7.64533 718.097 7.624C717.979 7.608 717.865 7.648 717.753 7.744C717.646 7.83467 717.558 7.95467 717.489 8.104C717.425 8.25333 717.393 8.39733 717.393 8.536C717.393 8.648 717.414 8.736 717.457 8.8C717.542 8.92267 717.689 9.016 717.897 9.08C718.11 9.13867 718.35 9.168 718.617 9.168C718.835 9.168 719.057 9.14667 719.281 9.104V9.928C719.041 9.992 718.774 10.024 718.481 10.024C718.118 10.024 717.79 9.96533 717.497 9.848C717.203 9.72533 716.995 9.53867 716.873 9.288C716.782 9.096 716.737 8.88533 716.737 8.656C716.737 8.368 716.798 8.08 716.921 7.792C717.049 7.504 717.217 7.26667 717.425 7.08C717.638 6.89333 717.867 6.8 718.113 6.8C718.427 6.8 718.707 6.93867 718.953 7.216C719.203 7.488 719.395 7.84 719.529 8.272C719.667 8.69867 719.737 9.128 719.737 9.56C719.737 10.2533 719.478 10.84 718.961 11.32C718.449 11.8 717.734 12.1307 716.817 12.312L716.553 11.536ZM722.876 10C722.535 10 722.266 9.88 722.068 9.64C721.876 9.39467 721.714 9.048 721.58 8.6L722.116 8.272C722.191 8.58667 722.284 8.808 722.396 8.936C722.514 9.05867 722.674 9.12 722.876 9.12H722.932L722.98 9.56L722.932 10H722.876ZM719.82 11.56C720.167 11.432 720.479 11.272 720.756 11.08C721.039 10.888 721.26 10.688 721.42 10.48C721.586 10.2773 721.668 10.088 721.668 9.912C721.668 9.688 721.527 9.02667 721.244 7.928L721.948 7.656C722.071 8.03467 722.17 8.43467 722.244 8.856C722.324 9.272 722.364 9.624 722.364 9.912C722.364 10.4027 722.159 10.864 721.748 11.296C721.343 11.7333 720.815 12.072 720.164 12.312L719.82 11.56ZM722.843 9.12H722.947C723.784 9.12 724.413 9.05067 724.835 8.912C725.261 8.77333 725.512 8.53333 725.587 8.192C725.587 7.90933 725.547 7.624 725.467 7.336C725.387 7.04267 725.272 6.8 725.123 6.608C724.973 6.41067 724.8 6.312 724.603 6.312C724.48 6.312 724.365 6.352 724.259 6.432C724.157 6.512 724.075 6.616 724.011 6.744C723.952 6.86667 723.923 6.98933 723.923 7.112C723.923 7.21333 723.947 7.304 723.995 7.384C724.075 7.50667 724.221 7.60267 724.435 7.672C724.653 7.74133 724.899 7.776 725.171 7.776C725.379 7.776 725.568 7.75733 725.739 7.72V8.528C725.509 8.576 725.272 8.6 725.027 8.6C724.659 8.6 724.331 8.54133 724.043 8.424C723.76 8.30133 723.555 8.12 723.427 7.88C723.325 7.68267 723.275 7.46133 723.275 7.216C723.275 6.93867 723.333 6.66933 723.451 6.408C723.573 6.14133 723.739 5.92533 723.947 5.76C724.16 5.58933 724.395 5.504 724.651 5.504C724.949 5.504 725.216 5.62133 725.451 5.856C725.685 6.08533 725.867 6.38667 725.995 6.76C726.123 7.128 726.187 7.50933 726.187 7.904C726.187 8.01067 726.184 8.09067 726.179 8.144C726.136 8.74133 725.845 9.2 725.307 9.52C724.768 9.84 723.981 10 722.947 10H722.843V9.12ZM723.923 4.296C724.131 4.07733 724.339 3.86933 724.547 3.672C724.755 3.86933 724.963 4.07733 725.171 4.296L724.547 4.92L723.923 4.296ZM730.449 7.896C730.315 8.19467 730.209 8.48 730.129 8.752C730.049 9.01867 730.009 9.27733 730.009 9.528C730.009 10.008 730.155 10.3707 730.449 10.616C730.742 10.8667 731.161 10.992 731.705 10.992C732.046 10.992 732.353 10.9413 732.625 10.84C732.902 10.744 733.129 10.616 733.305 10.456C733.486 10.3013 733.611 10.1387 733.681 9.968C733.686 9.94133 733.617 9.90133 733.473 9.848C733.329 9.78933 733.083 9.712 732.737 9.616C732.321 9.49867 732.027 9.368 731.857 9.224C731.686 9.07467 731.601 8.85867 731.601 8.576C731.601 8.17067 731.702 7.784 731.905 7.416C732.113 7.048 732.387 6.752 732.729 6.528C733.075 6.304 733.438 6.192 733.817 6.192C733.961 6.192 734.107 6.21333 734.257 6.256C734.411 6.29333 734.523 6.33867 734.593 6.392L734.337 7.16C734.273 7.13333 734.19 7.112 734.089 7.096C733.987 7.08 733.894 7.072 733.809 7.072C733.569 7.072 733.339 7.13067 733.121 7.248C732.907 7.36533 732.729 7.51467 732.585 7.696C732.446 7.87733 732.358 8.064 732.321 8.256C732.315 8.27733 732.313 8.30933 732.313 8.352C732.313 8.45333 732.371 8.54133 732.489 8.616C732.606 8.68533 732.841 8.768 733.193 8.864C733.523 8.95467 733.777 9.04267 733.953 9.128C734.129 9.21333 734.249 9.30667 734.313 9.408C734.377 9.504 734.409 9.624 734.409 9.768C734.409 10.1147 734.291 10.448 734.057 10.768C733.827 11.0933 733.505 11.3573 733.089 11.56C732.678 11.768 732.217 11.872 731.705 11.872C731.219 11.872 730.79 11.776 730.417 11.584C730.043 11.392 729.755 11.1147 729.553 10.752C729.355 10.3893 729.27 9.96267 729.297 9.472C729.307 9.168 729.363 8.85067 729.465 8.52C729.571 8.184 729.691 7.88 729.825 7.608L730.449 7.896ZM735.538 9.952C735.58 9.632 735.602 9.072 735.602 8.272C735.602 7.54133 735.583 6.792 735.546 6.024C735.514 5.25067 735.476 4.736 735.434 4.48L736.194 4.312C736.231 4.57867 736.268 5.104 736.306 5.888C736.343 6.672 736.362 7.42933 736.362 8.16C736.362 8.992 736.335 9.61867 736.282 10.04L735.538 9.952ZM739.322 10C738.98 10 738.711 9.88 738.514 9.64C738.322 9.39467 738.159 9.048 738.026 8.6L738.562 8.272C738.636 8.58667 738.73 8.808 738.842 8.936C738.959 9.05867 739.119 9.12 739.322 9.12H739.378L739.426 9.56L739.378 10H739.322ZM736.266 11.56C736.612 11.432 736.924 11.272 737.202 11.08C737.484 10.888 737.706 10.688 737.866 10.48C738.031 10.2773 738.114 10.088 738.114 9.912C738.114 9.688 737.972 9.02667 737.69 7.928L738.394 7.656C738.516 8.03467 738.615 8.43467 738.69 8.856C738.77 9.272 738.81 9.624 738.81 9.912C738.81 10.4027 738.604 10.864 738.194 11.296C737.788 11.7333 737.26 12.072 736.61 12.312L736.266 11.56ZM739.296 9.12H739.712C740.128 9.12 740.427 9.06933 740.608 8.968C740.789 8.86667 740.88 8.70933 740.88 8.496C740.88 8.352 740.824 8.10667 740.712 7.76C740.605 7.408 740.52 7.16533 740.456 7.032L741.12 6.672C741.221 6.88 741.325 7.17067 741.432 7.544C741.539 7.912 741.592 8.22933 741.592 8.496C741.592 8.992 741.429 9.368 741.104 9.624C740.784 9.87467 740.32 10 739.712 10H739.296V9.12ZM739.664 11.32C739.872 11.1013 740.08 10.8933 740.288 10.696C740.496 10.8933 740.704 11.1013 740.912 11.32L740.288 11.944L739.664 11.32ZM747.719 10.08C747.708 9.92 747.703 9.79733 747.703 9.712C747.703 9.6 747.708 9.432 747.719 9.208C748.385 9.208 748.919 9.15733 749.319 9.056C749.724 8.94933 750.041 8.78667 750.271 8.568C750.5 8.344 750.679 8.04267 750.807 7.664L751.479 7.744C751.383 8.03733 751.335 8.28533 751.335 8.488C751.335 8.90933 751.548 9.12 751.975 9.12L752.023 9.56L751.975 10C751.623 10 751.329 9.888 751.095 9.664C750.865 9.44 750.753 9.14667 750.759 8.784L750.919 8.8C750.615 9.25867 750.201 9.58667 749.679 9.784C749.161 9.98133 748.508 10.08 747.719 10.08ZM745.631 7.256C745.481 7.67733 745.407 8.00533 745.407 8.24C745.407 8.29867 745.409 8.344 745.415 8.376C745.457 8.63733 745.676 8.84267 746.071 8.992C746.471 9.136 747.039 9.208 747.775 9.208C747.785 9.42133 747.791 9.58133 747.791 9.688C747.791 9.77867 747.785 9.90933 747.775 10.08C746.836 10.0853 746.103 9.95467 745.575 9.688C745.047 9.416 744.759 9.024 744.711 8.512C744.705 8.46933 744.703 8.408 744.703 8.328C744.703 8.10933 744.732 7.87733 744.791 7.632C744.849 7.38133 744.921 7.15467 745.007 6.952L745.631 7.256ZM746.863 6.832C747.119 6.576 747.247 6.448 747.247 6.448L747.831 7.024C747.639 7.22133 747.444 7.416 747.247 7.608L746.671 7.024L746.863 6.832ZM748.271 6.832C748.527 6.576 748.655 6.448 748.655 6.448L749.239 7.024C749.047 7.22133 748.852 7.416 748.655 7.608L748.079 7.024L748.271 6.832ZM751.89 9.12H752.226C752.786 9.12 753.18 9.06933 753.41 8.968C753.639 8.86133 753.754 8.696 753.754 8.472C753.748 8.32267 753.692 8.08 753.586 7.744C753.479 7.408 753.391 7.17067 753.322 7.032L753.986 6.672C754.092 6.88533 754.196 7.17067 754.298 7.528C754.404 7.88533 754.458 8.19733 754.458 8.464C754.458 8.97067 754.282 9.35467 753.93 9.616C753.578 9.872 753.05 10 752.346 10H751.89V9.12ZM751.586 11.128C751.842 10.872 751.97 10.744 751.97 10.744L752.554 11.32C752.362 11.5173 752.167 11.712 751.97 11.904L751.394 11.32L751.586 11.128ZM753.002 11.128C753.258 10.872 753.386 10.744 753.386 10.744L753.97 11.32C753.778 11.5173 753.583 11.712 753.386 11.904L752.81 11.32L753.002 11.128ZM756.045 4.312C756.088 4.616 756.122 5.10133 756.149 5.768C756.176 6.42933 756.189 7.04533 756.189 7.616V7.968C756.184 8.288 756.197 8.52533 756.229 8.68C756.261 8.83467 756.333 8.94667 756.445 9.016C756.557 9.08533 756.736 9.12 756.981 9.12H757.021L757.069 9.56L757.021 10H756.981C756.416 10 756.018 9.85333 755.789 9.56C755.565 9.26133 755.453 8.78933 755.453 8.144C755.453 7.55733 755.437 6.89067 755.405 6.144C755.378 5.392 755.338 4.83733 755.285 4.48L756.045 4.312ZM761.424 9.12C761.611 9.12 761.752 9.06933 761.848 8.968C761.944 8.86133 761.992 8.712 761.992 8.52C761.992 8.34933 761.939 8.10667 761.832 7.792C761.731 7.472 761.64 7.22133 761.56 7.04L762.208 6.68C762.315 6.90933 762.422 7.20533 762.528 7.568C762.64 7.93067 762.696 8.25333 762.696 8.536C762.696 8.808 762.64 9.056 762.528 9.28C762.422 9.49867 762.272 9.67467 762.08 9.808C761.888 9.936 761.67 10 761.424 10H761.408V9.12H761.424ZM759.256 10V9.12H759.28C759.435 9.12 759.571 9.07733 759.688 8.992C759.806 8.90133 759.912 8.77067 760.008 8.6C760.126 8.38133 760.216 8.048 760.28 7.6L760.952 7.632C760.888 7.968 760.856 8.232 760.856 8.424C760.856 8.65333 760.902 8.82667 760.992 8.944C761.083 9.06133 761.227 9.12 761.424 9.12H761.44L761.488 9.56L761.44 10H761.424C761.12 10 760.875 9.91467 760.688 9.744C760.502 9.568 760.382 9.32267 760.328 9.008L760.48 8.992C760.358 9.29067 760.19 9.53333 759.976 9.72C759.768 9.90667 759.534 10 759.272 10H759.256ZM756.96 10L756.912 9.56L756.96 9.12H757C757.192 9.12 757.371 9.07733 757.536 8.992C757.707 8.90667 757.838 8.79733 757.928 8.664C758.035 8.52533 758.118 8.37333 758.176 8.208C758.24 8.04267 758.296 7.864 758.344 7.672L759.016 7.744C759.011 7.77067 758.982 7.88 758.928 8.072C758.875 8.264 758.848 8.44533 758.848 8.616C758.848 8.78133 758.88 8.90667 758.944 8.992C759.014 9.07733 759.12 9.12 759.264 9.12H759.28L759.328 9.56L759.28 10H759.248C759.008 10 758.806 9.93067 758.64 9.792C758.475 9.65333 758.371 9.46667 758.328 9.232C757.976 9.744 757.531 10 756.992 10H756.96ZM770.494 8.256C770.595 8.58133 770.696 8.808 770.798 8.936C770.904 9.05867 771.062 9.12 771.27 9.12H771.318L771.366 9.56L771.318 10H771.27C771.067 10 770.891 9.93333 770.742 9.8C770.592 9.66667 770.467 9.50133 770.366 9.304C770.264 9.10133 770.155 8.84533 770.038 8.536L770.494 8.256ZM766.926 8.336C766.627 8.95467 766.478 9.49333 766.478 9.952C766.478 10.4373 766.624 10.8053 766.918 11.056C767.211 11.3067 767.63 11.432 768.174 11.432C768.584 11.432 768.934 11.3573 769.222 11.208C769.51 11.064 769.723 10.8747 769.862 10.64C770.006 10.4107 770.078 10.168 770.078 9.912C770.078 9.68267 770.03 9.38133 769.934 9.008C769.838 8.63467 769.731 8.27733 769.614 7.936L770.294 7.608C770.454 8.072 770.571 8.49067 770.646 8.864C770.726 9.23733 770.766 9.58667 770.766 9.912C770.766 10.3227 770.662 10.712 770.454 11.08C770.246 11.448 769.944 11.744 769.55 11.968C769.16 12.1973 768.702 12.312 768.174 12.312C767.672 12.312 767.24 12.2107 766.878 12.008C766.515 11.8107 766.238 11.5413 766.046 11.2C765.859 10.8587 765.766 10.4747 765.766 10.048C765.766 9.728 765.819 9.38667 765.926 9.024C766.032 8.66133 766.158 8.336 766.302 8.048L766.926 8.336ZM767.718 7.696C767.926 7.47733 768.134 7.26933 768.342 7.072C768.55 7.26933 768.758 7.47733 768.966 7.696L768.342 8.32L767.718 7.696ZM771.441 9.12H771.777C772.337 9.12 772.732 9.06933 772.961 8.968C773.191 8.86133 773.305 8.696 773.305 8.472C773.3 8.32267 773.244 8.08 773.137 7.744C773.031 7.408 772.943 7.17067 772.873 7.032L773.537 6.672C773.644 6.88533 773.748 7.17067 773.849 7.528C773.956 7.88533 774.009 8.19733 774.009 8.464C774.009 8.97067 773.833 9.35467 773.481 9.616C773.129 9.872 772.601 10 771.897 10H771.441V9.12ZM771.497 11.112L771.881 10.728L772.465 11.304C772.273 11.5013 772.079 11.696 771.881 11.888L771.305 11.304L771.497 11.112ZM772.913 11.112L773.297 10.728L773.881 11.304C773.689 11.5013 773.495 11.696 773.297 11.888L772.721 11.304L772.913 11.112ZM771.257 10L771.209 9.56L771.257 9.12H771.521V10H771.257ZM774.944 9.952C774.986 9.632 775.008 9.072 775.008 8.272C775.008 7.54133 774.989 6.792 774.952 6.024C774.92 5.25067 774.882 4.736 774.84 4.48L775.6 4.312C775.637 4.57867 775.674 5.104 775.712 5.888C775.749 6.672 775.768 7.42933 775.768 8.16C775.768 8.992 775.741 9.61867 775.688 10.04L774.944 9.952ZM779.078 9.72C779.078 9.4 779.132 9.05867 779.238 8.696C779.345 8.33333 779.47 8.008 779.614 7.72L780.238 8.008C780.1 8.296 779.99 8.57067 779.91 8.832C779.83 9.09333 779.79 9.35733 779.79 9.624C779.79 10.0987 779.937 10.464 780.23 10.72C780.524 10.976 780.942 11.104 781.486 11.104C782.03 11.104 782.478 10.9707 782.83 10.704C783.188 10.4373 783.39 10.0827 783.438 9.64C783.257 9.672 783.062 9.688 782.854 9.688C782.497 9.688 782.172 9.62933 781.878 9.512C781.585 9.39467 781.377 9.21067 781.254 8.96C781.169 8.784 781.126 8.57333 781.126 8.328C781.126 8.04 781.188 7.752 781.31 7.464C781.433 7.176 781.598 6.93867 781.806 6.752C782.014 6.56533 782.241 6.472 782.486 6.472C782.812 6.472 783.097 6.61333 783.342 6.896C783.593 7.17333 783.785 7.528 783.918 7.96C784.052 8.392 784.118 8.82933 784.118 9.272C784.118 9.82667 784.006 10.3093 783.782 10.72C783.558 11.1307 783.246 11.4427 782.846 11.656C782.446 11.8747 781.993 11.984 781.486 11.984C780.985 11.984 780.553 11.8827 780.19 11.68C779.828 11.4827 779.55 11.2133 779.358 10.872C779.172 10.5307 779.078 10.1467 779.078 9.72ZM781.846 8.472C781.921 8.59467 782.062 8.688 782.27 8.752C782.478 8.81067 782.708 8.84 782.958 8.84C783.108 8.84 783.262 8.82667 783.422 8.8C783.369 8.39467 783.254 8.04267 783.078 7.744C782.908 7.44533 782.692 7.296 782.43 7.296C782.313 7.296 782.204 7.34133 782.102 7.432C782.001 7.52267 781.921 7.63733 781.862 7.776C781.804 7.91467 781.774 8.05067 781.774 8.184C781.774 8.296 781.798 8.392 781.846 8.472ZM781.334 5.104C781.59 4.848 781.718 4.72 781.718 4.72L782.302 5.296C782.11 5.49333 781.916 5.688 781.718 5.88L781.142 5.296L781.334 5.104ZM782.742 5.104C782.998 4.848 783.126 4.72 783.126 4.72L783.71 5.296C783.518 5.49333 783.324 5.688 783.126 5.88L782.55 5.296L782.742 5.104ZM784.693 11.536C785.568 11.3493 786.211 11.1013 786.621 10.792C787.032 10.488 787.237 10.104 787.237 9.64C787.237 9.336 787.197 9.032 787.117 8.728C787.037 8.424 786.92 8.17067 786.765 7.968C786.616 7.76 786.44 7.64533 786.237 7.624C786.12 7.608 786.005 7.648 785.893 7.744C785.787 7.83467 785.699 7.95467 785.629 8.104C785.565 8.25333 785.533 8.39733 785.533 8.536C785.533 8.648 785.555 8.736 785.597 8.8C785.683 8.928 785.877 9.01333 786.181 9.056C786.491 9.09867 786.891 9.12 787.381 9.12H788.165L788.213 9.56L788.165 10L787.181 10.008C786.6 10.008 786.128 9.96267 785.765 9.872C785.408 9.776 785.157 9.58133 785.013 9.288C784.923 9.096 784.877 8.88533 784.877 8.656C784.877 8.368 784.939 8.08 785.061 7.792C785.189 7.504 785.357 7.26667 785.565 7.08C785.779 6.89333 786.008 6.8 786.253 6.8C786.568 6.8 786.848 6.93867 787.093 7.216C787.344 7.488 787.536 7.84 787.669 8.272C787.808 8.69867 787.877 9.128 787.877 9.56C787.877 10.2533 787.619 10.84 787.101 11.32C786.589 11.8 785.875 12.1307 784.957 12.312L784.693 11.536ZM788.038 9.12H788.23C788.811 9.12 789.272 9.08533 789.614 9.016C789.96 8.94667 790.216 8.848 790.382 8.72C790.547 8.58667 790.664 8.41867 790.734 8.216C790.744 8.072 790.723 7.93067 790.67 7.792C790.622 7.65333 790.544 7.53867 790.438 7.448C790.331 7.35733 790.208 7.312 790.07 7.312C789.888 7.312 789.728 7.392 789.59 7.552C789.451 7.70667 789.368 7.89333 789.342 8.112C789.336 8.288 789.406 8.45333 789.55 8.608C789.694 8.76267 789.904 8.888 790.182 8.984C790.464 9.07467 790.798 9.12 791.182 9.12H791.958L792.006 9.56L791.958 10H791.478C790.939 10 790.454 9.92 790.022 9.76C789.595 9.6 789.259 9.384 789.014 9.112C788.774 8.84 788.654 8.54133 788.654 8.216C788.654 8.17333 788.659 8.10933 788.67 8.024C788.712 7.736 788.803 7.472 788.942 7.232C789.086 6.98667 789.259 6.79467 789.462 6.656C789.67 6.512 789.886 6.44 790.11 6.44C790.36 6.44 790.584 6.52 790.782 6.68C790.984 6.84 791.142 7.04533 791.254 7.296C791.366 7.54667 791.422 7.80267 791.422 8.064C791.422 8.112 791.416 8.184 791.406 8.28C791.326 8.86667 791.022 9.30133 790.494 9.584C789.971 9.86133 789.216 10 788.23 10H788.038V9.12ZM789.046 5.216C789.302 4.96 789.43 4.832 789.43 4.832L790.014 5.408C789.822 5.60533 789.627 5.8 789.43 5.992L788.854 5.408L789.046 5.216ZM790.454 5.216C790.71 4.96 790.838 4.832 790.838 4.832L791.422 5.408C791.23 5.60533 791.035 5.8 790.838 5.992L790.262 5.408L790.454 5.216ZM791.85 9.12H792.538C793.194 9.12 793.808 9.04267 794.378 8.888C794.949 8.73333 795.53 8.49867 796.122 8.184C796.288 8.09333 796.461 8.01067 796.642 7.936C796.824 7.856 796.973 7.8 797.09 7.768L797.114 8.24C796.821 8.23467 796.538 8.19467 796.266 8.12C796 8.04 795.706 7.92 795.386 7.76C794.89 7.49867 794.472 7.368 794.13 7.368C793.912 7.368 793.714 7.432 793.538 7.56C793.362 7.688 793.232 7.83467 793.146 8L792.634 7.64C792.816 7.27733 793.034 7.00267 793.29 6.816C793.546 6.62933 793.832 6.536 794.146 6.536C794.376 6.536 794.592 6.576 794.794 6.656C795.002 6.73067 795.293 6.864 795.666 7.056C796.013 7.232 796.29 7.36267 796.498 7.448C796.706 7.53333 796.938 7.60267 797.194 7.656L797.226 8.432C797.125 8.45867 796.997 8.512 796.842 8.592C796.688 8.66667 796.52 8.75467 796.338 8.856C795.608 9.24533 794.952 9.53333 794.37 9.72C793.794 9.90667 793.157 10 792.458 10H791.85V9.12ZM802.834 5.96C802.924 6.92 803.002 7.65067 803.066 8.152C803.092 8.424 803.13 8.62667 803.178 8.76C803.226 8.89333 803.298 8.98667 803.394 9.04C803.49 9.09333 803.631 9.12 803.818 9.12H803.938L803.986 9.56L803.938 10H803.818C803.375 10 803.036 9.86667 802.802 9.6C802.567 9.328 802.415 8.88267 802.346 8.264C802.319 7.98133 802.263 7.512 802.178 6.856C802.162 6.69067 802.132 6.44267 802.09 6.112L802.834 5.96ZM802.77 9.44C802.45 9.54667 802.127 9.6 801.802 9.6C801.348 9.6 800.978 9.496 800.69 9.288C800.407 9.08 800.266 8.79467 800.266 8.432C800.266 7.98933 800.452 7.616 800.826 7.312C801.199 7.00267 801.7 6.73867 802.33 6.52L802.49 7.32C802.09 7.42133 801.738 7.56267 801.434 7.744C801.135 7.92533 800.978 8.09867 800.962 8.264C800.946 8.40267 801.01 8.52 801.154 8.616C801.303 8.70667 801.5 8.752 801.746 8.752C802.007 8.752 802.287 8.69867 802.586 8.592L802.77 9.44ZM803.851 9.12H803.915C804.331 9.12 804.653 9.10133 804.883 9.064C805.112 9.02667 805.277 8.97333 805.379 8.904C805.485 8.82933 805.557 8.72533 805.595 8.592C805.616 8.52267 805.627 8.424 805.627 8.296C805.627 8.152 805.613 7.98933 805.587 7.808C805.56 7.62133 805.544 7.50667 805.539 7.464L806.203 7.328C806.277 7.68533 806.315 8.11733 806.315 8.624C806.341 8.77867 806.411 8.90133 806.523 8.992C806.64 9.07733 806.797 9.12 806.995 9.12H807.051L807.099 9.56L807.051 10H806.995C806.733 10 806.501 9.92533 806.299 9.776C806.101 9.62667 805.955 9.43467 805.859 9.2L806.035 9.232C805.917 9.51467 805.701 9.71467 805.387 9.832C805.072 9.944 804.581 10 803.915 10H803.851V9.12ZM803.555 11.112C803.811 10.856 803.939 10.728 803.939 10.728L804.523 11.304C804.331 11.5013 804.136 11.696 803.939 11.888L803.363 11.304L803.555 11.112ZM804.971 11.112C805.227 10.856 805.355 10.728 805.355 10.728L805.939 11.304C805.747 11.5013 805.552 11.696 805.355 11.888L804.779 11.304L804.971 11.112ZM809.432 9.12L809.48 9.56L809.432 10H809.344C809.104 10 808.88 9.928 808.672 9.784C808.469 9.63467 808.306 9.432 808.184 9.176C808.061 8.92 808 8.63467 808 8.32C808.005 8.192 807.984 7.6 807.936 6.544C807.888 5.488 807.848 4.8 807.816 4.48L808.576 4.32C808.608 4.64 808.637 5.26933 808.664 6.208C808.696 7.14133 808.714 7.66933 808.72 7.792L808.736 8.328C808.768 8.856 808.97 9.12 809.344 9.12H809.432ZM806.968 9.12H807.176C807.474 9.12 807.688 9.05867 807.816 8.936C807.944 8.808 808.005 8.60267 808 8.32L808.56 8.384C808.56 8.86933 808.44 9.26133 808.2 9.56C807.965 9.85333 807.626 10 807.184 10H806.968V9.12ZM812.999 4.92L810.559 5.976C810.948 6.30667 811.308 6.70667 811.639 7.176C811.969 7.64533 812.135 8.088 812.135 8.504C812.135 8.63733 812.116 8.76 812.079 8.872C811.956 9.25067 811.676 9.53333 811.239 9.72C810.807 9.90667 810.252 10 809.575 10H809.351V9.12H809.575C810.081 9.12 810.489 9.07733 810.799 8.992C811.113 8.90133 811.313 8.77333 811.399 8.608C811.409 8.55467 811.415 8.512 811.415 8.48C811.415 8.21333 811.268 7.888 810.975 7.504C810.681 7.11467 810.265 6.704 809.727 6.272L809.823 5.472L812.759 4.208L812.999 4.92Z" fill="white"/>
</svg>
