<svg width="21" height="20" viewBox="0 0 21 20" fill="none" xmlns="http://www.w3.org/2000/svg">
<path d="M7.92492 17.225C7.76659 17.225 7.60825 17.1667 7.48325 17.0417C7.24159 16.8 7.24159 16.4 7.48325 16.1583L12.9166 10.725C13.3166 10.325 13.3166 9.67502 12.9166 9.27502L7.48325 3.84168C7.24159 3.60002 7.24159 3.20002 7.48325 2.95835C7.72492 2.71668 8.12492 2.71668 8.36658 2.95835L13.7999 8.39168C14.2249 8.81668 14.4666 9.39168 14.4666 10C14.4666 10.6084 14.2333 11.1834 13.7999 11.6084L8.36658 17.0417C8.24158 17.1584 8.08325 17.225 7.92492 17.225Z" fill="#393939"/>
</svg>
