<svg width="45" height="45" viewBox="0 0 45 45" fill="none" xmlns="http://www.w3.org/2000/svg">
<path d="M22.5879 12.9C22.3504 12.9 22.1129 12.8125 21.9254 12.625L15.0004 5.70005L8.07539 12.625C7.71289 12.9875 7.11289 12.9875 6.75039 12.625C6.38789 12.2625 6.38789 11.6625 6.75039 11.3L14.3379 3.71255C14.7004 3.35005 15.3004 3.35005 15.6629 3.71255L23.2504 11.3C23.6129 11.6625 23.6129 12.2625 23.2504 12.625C23.0754 12.8125 22.8254 12.9 22.5879 12.9Z" fill="#727272"/>
<path d="M15 26.5625C14.4875 26.5625 14.0625 26.1375 14.0625 25.625V4.58752C14.0625 4.07502 14.4875 3.65002 15 3.65002C15.5125 3.65002 15.9375 4.07502 15.9375 4.58752V25.625C15.9375 26.1375 15.5125 26.5625 15 26.5625Z" fill="#727272"/>
<path d="M30.0004 41.5625C29.7629 41.5625 29.5254 41.475 29.3379 41.2875L21.7504 33.7C21.3879 33.3375 21.3879 32.7375 21.7504 32.375C22.1129 32.0125 22.7129 32.0125 23.0754 32.375L30.0004 39.3L36.9254 32.375C37.2879 32.0125 37.8879 32.0125 38.2504 32.375C38.6129 32.7375 38.6129 33.3375 38.2504 33.7L30.6629 41.2875C30.4754 41.475 30.2379 41.5625 30.0004 41.5625Z" fill="#727272"/>
<path d="M30 41.35C29.4875 41.35 29.0625 40.925 29.0625 40.4125V19.375C29.0625 18.8625 29.4875 18.4375 30 18.4375C30.5125 18.4375 30.9375 18.8625 30.9375 19.375V40.4125C30.9375 40.925 30.5125 41.35 30 41.35Z" fill="#727272"/>
</svg>
