<svg width="157" height="21" viewBox="0 0 157 21" fill="none" xmlns="http://www.w3.org/2000/svg">
<path d="M6.12055 14.14C6.10188 13.804 6.09255 13.552 6.09255 13.384C6.09255 13.2067 6.10188 12.95 6.12055 12.614C6.97921 12.614 7.71655 12.558 8.33255 12.446C8.94855 12.3247 9.41988 12.1847 9.74655 12.026C10.0732 11.8673 10.2505 11.7227 10.2785 11.592C10.2132 11.0133 9.94255 10.0847 9.46655 8.806L10.6285 8.176C10.8245 8.63333 11.0112 9.19333 11.1885 9.856C11.3659 10.5187 11.4545 11.0693 11.4545 11.508C11.4545 12.0587 11.2259 12.5347 10.7685 12.936C10.3112 13.328 9.67655 13.6267 8.86455 13.832C8.06188 14.0373 7.14721 14.14 6.12055 14.14ZM2.49455 9.198C2.23321 9.93533 2.10255 10.5093 2.10255 10.92C2.10255 11.0227 2.10721 11.102 2.11655 11.158C2.19121 11.6153 2.57388 11.9747 3.26455 12.236C3.96455 12.488 4.95855 12.614 6.24655 12.614C6.26521 12.9873 6.27455 13.2673 6.27455 13.454C6.27455 13.6127 6.26521 13.8413 6.24655 14.14C4.60388 14.1493 3.32055 13.9207 2.39655 13.454C1.47255 12.978 0.968547 12.292 0.884547 11.396C0.875214 11.3213 0.870547 11.214 0.870547 11.074C0.870547 10.6913 0.92188 10.2853 1.02455 9.856C1.12721 9.41733 1.25321 9.02067 1.40255 8.666L2.49455 9.198ZM4.23055 8.484C4.67855 8.036 4.90255 7.812 4.90255 7.812L5.92455 8.82C5.58855 9.16533 5.24788 9.506 4.90255 9.842L3.89455 8.82L4.23055 8.484ZM6.69455 8.484C7.14255 8.036 7.36655 7.812 7.36655 7.812L8.38855 8.82C8.05255 9.16533 7.71188 9.506 7.36655 9.842L6.35855 8.82L6.69455 8.484ZM18.7897 4.046C18.9297 5.138 19.037 6.104 19.1117 6.944C19.1863 7.77467 19.2237 8.60533 19.2237 9.436L19.2097 10.122C19.1723 11.4753 18.6123 12.502 17.5297 13.202C16.4563 13.902 15.089 14.308 13.4277 14.42L13.0497 12.95C14.5057 12.81 15.677 12.5253 16.5637 12.096C17.4503 11.6667 17.8937 11.0087 17.8937 10.122C17.8937 9.18867 17.8563 8.29733 17.7817 7.448C17.7163 6.58933 17.609 5.55333 17.4597 4.34L18.7897 4.046ZM13.8057 5.264C14.3843 6.47733 14.8277 7.63467 15.1357 8.736C15.453 9.83733 15.6117 10.7847 15.6117 11.578C15.6117 11.9887 15.5697 12.348 15.4857 12.656L14.2537 12.936C14.3563 12.6933 14.4077 12.376 14.4077 11.984C14.4077 11.2747 14.249 10.3973 13.9317 9.352C13.6143 8.30667 13.199 7.20067 12.6857 6.034L13.8057 5.264ZM20.2817 16.688C21.8123 16.3613 22.937 15.9273 23.6557 15.386C24.3743 14.854 24.7337 14.182 24.7337 13.37C24.7337 12.838 24.6637 12.306 24.5237 11.774C24.3837 11.242 24.1783 10.7987 23.9077 10.444C23.6463 10.08 23.3383 9.87933 22.9837 9.842C22.7783 9.814 22.5777 9.884 22.3817 10.052C22.195 10.2107 22.041 10.4207 21.9197 10.682C21.8077 10.9433 21.7517 11.1953 21.7517 11.438C21.7517 11.634 21.789 11.788 21.8637 11.9C22.013 12.124 22.3537 12.2733 22.8857 12.348C23.427 12.4227 24.127 12.46 24.9857 12.46H26.3577L26.4417 13.23L26.3577 14L24.6357 14.014C23.6183 14.014 22.7923 13.9347 22.1577 13.776C21.5323 13.608 21.0937 13.2673 20.8417 12.754C20.683 12.418 20.6037 12.0493 20.6037 11.648C20.6037 11.144 20.711 10.64 20.9257 10.136C21.1497 9.632 21.4437 9.21667 21.8077 8.89C22.181 8.56333 22.5823 8.4 23.0117 8.4C23.5623 8.4 24.0523 8.64267 24.4817 9.128C24.9203 9.604 25.2563 10.22 25.4897 10.976C25.7323 11.7227 25.8537 12.474 25.8537 13.23C25.8537 14.4433 25.401 15.47 24.4957 16.31C23.5997 17.15 22.349 17.7287 20.7437 18.046L20.2817 16.688ZM38.4961 12.46L38.5801 13.23L38.4961 14H38.4121C37.2454 14 36.4054 13.9767 35.8921 13.93C35.3788 13.874 34.9774 13.7433 34.6881 13.538L35.2761 12.88C36.6201 12.6 37.6701 12.46 38.4261 12.46H38.4961ZM26.1621 12.46H26.3721C26.8294 12.46 27.2028 12.362 27.4921 12.166C27.7814 11.9607 28.0101 11.6433 28.1781 11.214C28.3554 10.7847 28.4954 10.206 28.5981 9.478L29.7601 9.716C29.7134 10.0053 29.6901 10.318 29.6901 10.654C29.6901 11.4287 29.8908 11.9747 30.2921 12.292C30.7028 12.6093 31.3701 12.768 32.2941 12.768C33.1434 12.768 33.8994 12.67 34.5621 12.474C35.2248 12.278 35.7381 12.0213 36.1021 11.704C36.4754 11.3867 36.6621 11.0553 36.6621 10.71C36.6621 10.4113 36.5361 10.164 36.2841 9.968C36.0414 9.76267 35.7054 9.66 35.2761 9.66C34.5201 9.66 33.7501 9.99133 32.9661 10.654C32.1914 11.3073 31.4774 12.236 30.8241 13.44L29.8721 12.81C30.6001 11.3727 31.4308 10.248 32.3641 9.436C33.3068 8.61467 34.2401 8.204 35.1641 8.204C35.6681 8.204 36.1254 8.31133 36.5361 8.526C36.9468 8.74067 37.2641 9.03933 37.4881 9.422C37.7214 9.79533 37.8381 10.22 37.8381 10.696C37.8381 11.4147 37.6048 12.0447 37.1381 12.586C36.6714 13.1273 36.0228 13.5473 35.1921 13.846C34.3708 14.1447 33.4421 14.294 32.4061 14.294C30.5114 14.294 29.3541 13.7107 28.9341 12.544C28.6821 13.02 28.3554 13.384 27.9541 13.636C27.5528 13.8787 27.0208 14 26.3581 14H26.1621V12.46ZM49.0957 12.46L49.1797 13.23L49.0957 14H48.9557C47.9851 13.9907 47.2151 13.7947 46.6457 13.412C46.0764 13.0293 45.6891 12.46 45.4837 11.704L46.3237 11.018C46.4171 11.4287 46.6784 11.774 47.1077 12.054C47.5464 12.3247 48.1017 12.46 48.7737 12.46H49.0957ZM38.3437 12.46H39.5477C40.6957 12.46 41.7691 12.3247 42.7677 12.054C43.7664 11.7833 44.7837 11.3727 45.8197 10.822C46.1091 10.6633 46.4124 10.5187 46.7297 10.388C47.0471 10.248 47.3084 10.15 47.5137 10.094L47.5557 10.92C47.0424 10.9107 46.5477 10.8407 46.0717 10.71C45.6051 10.57 45.0917 10.36 44.5317 10.08C43.6637 9.62267 42.9311 9.394 42.3337 9.394C41.9511 9.394 41.6057 9.506 41.2977 9.73C40.9897 9.954 40.7611 10.2107 40.6117 10.5L39.7157 9.87C40.0331 9.23533 40.4157 8.75467 40.8637 8.428C41.3117 8.10133 41.8111 7.938 42.3617 7.938C42.7631 7.938 43.1411 8.008 43.4957 8.148C43.8597 8.27867 44.3684 8.512 45.0217 8.848C45.6284 9.156 46.1137 9.38467 46.4777 9.534C46.8417 9.68333 47.2477 9.80467 47.6957 9.898L47.7517 11.256C47.5744 11.3027 47.3504 11.396 47.0797 11.536C46.8091 11.6667 46.5151 11.8207 46.1977 11.998C44.9191 12.6793 43.7711 13.1833 42.7537 13.51C41.7457 13.8367 40.6304 14 39.4077 14H38.3437V12.46ZM51.6974 11.382C52.2761 11.774 52.7988 12.082 53.2654 12.306C53.7321 12.53 54.0914 12.642 54.3434 12.642C54.4181 12.642 54.4928 12.6233 54.5674 12.586C54.7074 12.5113 54.8148 12.39 54.8894 12.222C54.9641 12.0447 55.0014 11.844 55.0014 11.62C55.0014 11.1907 54.8894 10.7987 54.6654 10.444C54.4414 10.0893 54.1521 9.912 53.7974 9.912C53.5174 9.912 53.2188 10.1033 52.9014 10.486C52.5934 10.8687 52.2528 11.4567 51.8794 12.25C51.5994 12.8287 51.2308 13.2673 50.7734 13.566C50.3161 13.8553 49.7934 14 49.2054 14H48.9534L48.9814 12.46H49.2334C49.6068 12.46 49.9521 12.3527 50.2694 12.138C50.5868 11.9233 50.8574 11.5967 51.0814 11.158C51.4921 10.3553 51.9074 9.72067 52.3274 9.254C52.7474 8.78733 53.2048 8.54 53.6994 8.512C54.1941 8.484 54.6234 8.61467 54.9874 8.904C55.3608 9.19333 55.6454 9.576 55.8414 10.052C56.0374 10.528 56.1354 11.0273 56.1354 11.55C56.1354 12.0633 56.0374 12.5347 55.8414 12.964C55.6454 13.384 55.3561 13.7013 54.9734 13.916C54.7868 14.0187 54.5721 14.07 54.3294 14.07C53.5921 14.07 52.5141 13.5987 51.0954 12.656L51.6974 11.382Z" fill="#3A3A3A"/>
<path d="M76.0332 15.78L71.6865 11.4333C71.1732 10.92 71.1732 10.08 71.6865 9.56667L76.0332 5.22" stroke="#727272" stroke-width="1.5" stroke-miterlimit="10" stroke-linecap="round" stroke-linejoin="round"/>
<path d="M91.9247 17.948C91.1034 17.948 90.3754 17.794 89.7407 17.486C89.1061 17.178 88.6067 16.7253 88.2427 16.128C87.8787 15.54 87.6967 14.84 87.6967 14.028C87.6967 13.468 87.7901 12.866 87.9767 12.222C88.1727 11.578 88.3967 10.9993 88.6487 10.486L89.7267 10.99C89.4934 11.5127 89.3067 12.012 89.1667 12.488C89.0267 12.9547 88.9567 13.4073 88.9567 13.846C88.9567 14.6953 89.2134 15.3347 89.7267 15.764C90.2401 16.2027 90.9727 16.422 91.9247 16.422C92.4661 16.422 92.9794 16.352 93.4647 16.212C93.9594 16.072 94.3701 15.8993 94.6967 15.694C95.0234 15.498 95.2241 15.316 95.2987 15.148C95.1961 14.98 94.8647 14.7187 94.3047 14.364C93.7447 14.0093 93.1521 13.7107 92.5267 13.468L92.8487 12.012C93.5954 12.1613 94.2581 12.2733 94.8367 12.348C95.4247 12.4227 95.9941 12.46 96.5447 12.46H96.8387L96.9227 13.23L96.8387 14H96.5447C95.9287 14 95.3221 13.958 94.7247 13.874C94.1274 13.7807 93.3947 13.6453 92.5267 13.468L92.8627 12.502L93.1707 12.642C94.0947 13.0433 94.8834 13.454 95.5367 13.874C96.1901 14.2847 96.5121 14.728 96.5027 15.204C96.4934 15.6427 96.2787 16.0767 95.8587 16.506C95.4387 16.9353 94.8787 17.2807 94.1787 17.542C93.4881 17.8127 92.7367 17.948 91.9247 17.948ZM100.922 12.46L101.006 13.23L100.922 14H100.768C100.348 14 99.9557 13.874 99.5917 13.622C99.237 13.3607 98.9524 13.006 98.7377 12.558C98.523 12.11 98.4157 11.6107 98.4157 11.06C98.425 10.836 98.3877 9.8 98.3037 7.952C98.2197 6.104 98.1497 4.9 98.0937 4.34L99.4237 4.06C99.4797 4.62 99.531 5.72133 99.5777 7.364C99.6337 8.99733 99.6664 9.92133 99.6757 10.136L99.7037 11.074C99.7597 11.998 100.114 12.46 100.768 12.46H100.922ZM96.6097 12.46H96.9737C97.4964 12.46 97.8697 12.3527 98.0937 12.138C98.3177 11.914 98.425 11.5547 98.4157 11.06L99.3957 11.172C99.3957 12.0213 99.1857 12.7073 98.7657 13.23C98.355 13.7433 97.7624 14 96.9877 14H96.6097V12.46ZM100.766 12.46H100.976C101.433 12.46 101.806 12.362 102.096 12.166C102.385 11.9607 102.614 11.6433 102.782 11.214C102.959 10.7847 103.099 10.206 103.202 9.478L104.364 9.716C104.317 10.0053 104.294 10.318 104.294 10.654C104.294 11.4287 104.494 11.9747 104.896 12.292C105.306 12.6093 105.974 12.768 106.898 12.768C107.747 12.768 108.503 12.67 109.166 12.474C109.828 12.278 110.342 12.0213 110.706 11.704C111.079 11.3867 111.266 11.0553 111.266 10.71C111.266 10.4113 111.14 10.164 110.888 9.968C110.645 9.76267 110.309 9.66 109.88 9.66C109.124 9.66 108.354 9.99133 107.57 10.654C106.795 11.3073 106.081 12.236 105.428 13.44L104.476 12.81C105.204 11.3727 106.034 10.248 106.968 9.436C107.91 8.61467 108.844 8.204 109.768 8.204C110.272 8.204 110.729 8.31133 111.14 8.526C111.55 8.74067 111.868 9.03933 112.092 9.422C112.325 9.79533 112.442 10.22 112.442 10.696C112.442 11.4147 112.208 12.0447 111.742 12.586C111.275 13.1273 110.626 13.5473 109.796 13.846C108.974 14.1447 108.046 14.294 107.01 14.294C105.115 14.294 103.958 13.7107 103.538 12.544C103.286 13.02 102.959 13.384 102.558 13.636C102.156 13.8787 101.624 14 100.962 14H100.766V12.46ZM114.04 13.916C114.115 13.356 114.152 12.376 114.152 10.976C114.152 9.69733 114.12 8.386 114.054 7.042C113.998 5.68867 113.933 4.788 113.858 4.34L115.188 4.046C115.254 4.51267 115.319 5.432 115.384 6.804C115.45 8.176 115.482 9.50133 115.482 10.78C115.482 12.236 115.436 13.3327 115.342 14.07L114.04 13.916ZM125.77 6.93C125.928 8.61 126.064 9.88867 126.176 10.766C126.222 11.242 126.288 11.5967 126.372 11.83C126.456 12.0633 126.582 12.2267 126.75 12.32C126.918 12.4133 127.165 12.46 127.492 12.46H127.702L127.786 13.23L127.702 14H127.492C126.717 14 126.124 13.7667 125.714 13.3C125.303 12.824 125.037 12.0447 124.916 10.962C124.869 10.4673 124.771 9.646 124.622 8.498C124.594 8.20867 124.542 7.77467 124.468 7.196L125.77 6.93ZM125.658 13.02C125.098 13.2067 124.533 13.3 123.964 13.3C123.17 13.3 122.522 13.118 122.018 12.754C121.523 12.39 121.276 11.8907 121.276 11.256C121.276 10.4813 121.602 9.828 122.256 9.296C122.909 8.75467 123.786 8.29267 124.888 7.91L125.168 9.31C124.468 9.48733 123.852 9.73467 123.32 10.052C122.797 10.3693 122.522 10.6727 122.494 10.962C122.466 11.2047 122.578 11.41 122.83 11.578C123.091 11.7367 123.436 11.816 123.866 11.816C124.323 11.816 124.813 11.7227 125.336 11.536L125.658 13.02ZM138.287 12.46L138.371 13.23L138.287 14H138.147C137.176 13.9907 136.406 13.7947 135.837 13.412C135.268 13.0293 134.88 12.46 134.675 11.704L135.515 11.018C135.608 11.4287 135.87 11.774 136.299 12.054C136.738 12.3247 137.293 12.46 137.965 12.46H138.287ZM127.535 12.46H128.739C129.887 12.46 130.96 12.3247 131.959 12.054C132.958 11.7833 133.975 11.3727 135.011 10.822C135.3 10.6633 135.604 10.5187 135.921 10.388C136.238 10.248 136.5 10.15 136.705 10.094L136.747 10.92C136.234 10.9107 135.739 10.8407 135.263 10.71C134.796 10.57 134.283 10.36 133.723 10.08C132.855 9.62267 132.122 9.394 131.525 9.394C131.142 9.394 130.797 9.506 130.489 9.73C130.181 9.954 129.952 10.2107 129.803 10.5L128.907 9.87C129.224 9.23533 129.607 8.75467 130.055 8.428C130.503 8.10133 131.002 7.938 131.553 7.938C131.954 7.938 132.332 8.008 132.687 8.148C133.051 8.27867 133.56 8.512 134.213 8.848C134.82 9.156 135.305 9.38467 135.669 9.534C136.033 9.68333 136.439 9.80467 136.887 9.898L136.943 11.256C136.766 11.3027 136.542 11.396 136.271 11.536C136 11.6667 135.706 11.8207 135.389 11.998C134.11 12.6793 132.962 13.1833 131.945 13.51C130.937 13.8367 129.822 14 128.599 14H127.535V12.46ZM138.103 12.46H138.439C139.456 12.46 140.264 12.3993 140.861 12.278C141.468 12.1567 141.916 11.984 142.205 11.76C142.494 11.5267 142.7 11.2327 142.821 10.878C142.84 10.626 142.802 10.3787 142.709 10.136C142.625 9.89333 142.49 9.69267 142.303 9.534C142.116 9.37533 141.902 9.296 141.659 9.296C141.342 9.296 141.062 9.436 140.819 9.716C140.576 9.98667 140.432 10.3133 140.385 10.696C140.376 11.004 140.497 11.2933 140.749 11.564C141.001 11.8347 141.37 12.054 141.855 12.222C142.35 12.3807 142.933 12.46 143.605 12.46H144.963L145.047 13.23L144.963 14H144.123C143.18 14 142.331 13.86 141.575 13.58C140.828 13.3 140.24 12.922 139.811 12.446C139.391 11.97 139.181 11.4473 139.181 10.878C139.181 10.8033 139.19 10.6913 139.209 10.542C139.284 10.038 139.442 9.576 139.685 9.156C139.937 8.72667 140.24 8.39067 140.595 8.148C140.959 7.896 141.337 7.77 141.729 7.77C142.168 7.77 142.56 7.91 142.905 8.19C143.26 8.47 143.535 8.82933 143.731 9.268C143.927 9.70667 144.025 10.1547 144.025 10.612C144.025 10.696 144.016 10.822 143.997 10.99C143.857 12.0167 143.325 12.7773 142.401 13.272C141.486 13.7573 140.166 14 138.439 14H138.103V12.46ZM140.707 5.88C141.071 5.49733 141.435 5.13333 141.799 4.788C142.163 5.13333 142.527 5.49733 142.891 5.88L141.799 6.972L140.707 5.88ZM144.775 12.46H144.985C145.443 12.46 145.816 12.362 146.105 12.166C146.395 11.9607 146.623 11.6433 146.791 11.214C146.969 10.7847 147.109 10.206 147.211 9.478L148.373 9.716C148.327 10.0053 148.303 10.318 148.303 10.654C148.303 11.4287 148.504 11.9747 148.905 12.292C149.316 12.6093 149.983 12.768 150.907 12.768C151.757 12.768 152.513 12.67 153.175 12.474C153.838 12.278 154.351 12.0213 154.715 11.704C155.089 11.3867 155.275 11.0553 155.275 10.71C155.275 10.4113 155.149 10.164 154.897 9.968C154.655 9.76267 154.319 9.66 153.889 9.66C153.133 9.66 152.363 9.99133 151.579 10.654C150.805 11.3073 150.091 12.236 149.437 13.44L148.485 12.81C149.213 11.3727 150.044 10.248 150.977 9.436C151.92 8.61467 152.853 8.204 153.777 8.204C154.281 8.204 154.739 8.31133 155.149 8.526C155.56 8.74067 155.877 9.03933 156.101 9.422C156.335 9.79533 156.451 10.22 156.451 10.696C156.451 11.4147 156.218 12.0447 155.751 12.586C155.285 13.1273 154.636 13.5473 153.805 13.846C152.984 14.1447 152.055 14.294 151.019 14.294C149.125 14.294 147.967 13.7107 147.547 12.544C147.295 13.02 146.969 13.384 146.567 13.636C146.166 13.8787 145.634 14 144.971 14H144.775V12.46Z" fill="#727272"/>
</svg>
