<svg width="195" height="27" viewBox="0 0 195 27" fill="none" xmlns="http://www.w3.org/2000/svg">
<path d="M0 5C0 2.23858 2.23858 0 5 0H22C24.7614 0 27 2.23858 27 5V22C27 24.7614 24.7614 27 22 27H5C2.23858 27 0 24.7614 0 22V5Z" fill="#D204D2"/>
<path d="M42 5C42 2.23858 44.2386 0 47 0H64C66.7614 0 69 2.23858 69 5V22C69 24.7614 66.7614 27 64 27H47C44.2386 27 42 24.7614 42 22V5Z" fill="#D66C26"/>
<path d="M84 5C84 2.23858 86.2386 0 89 0H106C108.761 0 111 2.23858 111 5V22C111 24.7614 108.761 27 106 27H89C86.2386 27 84 24.7614 84 22V5Z" fill="#FAA97A"/>
<path d="M126 5C126 2.23858 128.239 0 131 0H148C150.761 0 153 2.23858 153 5V22C153 24.7614 150.761 27 148 27H131C128.239 27 126 24.7614 126 22V5Z" fill="#00A7E9"/>
<path d="M168 5C168 2.23858 170.239 0 173 0H190C192.761 0 195 2.23858 195 5V22C195 24.7614 192.761 27 190 27H173C170.239 27 168 24.7614 168 22V5Z" fill="#DCBFC1"/>
</svg>
