<svg width="24" height="24" viewBox="0 0 24 24" fill="none" xmlns="http://www.w3.org/2000/svg">
<path d="M7.72014 1.90001H11.5201C12.0801 1.90001 13.3001 2.07001 13.9501 2.72001L16.9801 5.06001L16.0601 6.25001L12.9601 3.85001C12.7101 3.61001 12.0801 3.41001 11.5201 3.41001H7.72014C6.82014 3.41001 5.85014 4.13001 5.65014 4.94001L3.23014 12.29C3.07014 12.73 3.10014 13.13 3.31014 13.42C3.53014 13.73 3.93014 13.91 4.42014 13.91H8.42014C8.94014 13.91 9.42014 14.13 9.75014 14.51C10.0901 14.9 10.2401 15.42 10.1601 15.96L9.66014 19.17C9.54014 19.73 9.92014 20.36 10.4601 20.54C10.9501 20.72 11.5801 20.46 11.8001 20.14L15.9001 14.04L17.1401 14.87L13.0401 20.97C12.4101 21.91 11.0301 22.36 9.95014 21.95C8.70014 21.54 7.90014 20.16 8.18014 18.88L8.67014 15.73C8.68014 15.66 8.68014 15.56 8.61014 15.48C8.56014 15.43 8.49014 15.4 8.41014 15.4H4.41014C3.43014 15.4 2.58014 14.99 2.08014 14.28C1.59014 13.59 1.49014 12.68 1.81014 11.8L4.20014 4.52001C4.57014 3.07001 6.11014 1.90001 7.72014 1.90001Z" fill="#3A3A3A"/>
<path d="M18.6201 3.0001H19.6201C21.4701 3.0001 22.3701 3.8701 22.3701 5.6501V15.4501C22.3701 17.2301 21.4701 18.1001 19.6201 18.1001H18.6201C16.7701 18.1001 15.8701 17.2301 15.8701 15.4501V5.6501C15.8701 3.8701 16.7701 3.0001 18.6201 3.0001ZM19.6201 16.6001C20.7101 16.6001 20.8701 16.3401 20.8701 15.4501V5.6501C20.8701 4.7601 20.7101 4.5001 19.6201 4.5001H18.6201C17.5301 4.5001 17.3701 4.7601 17.3701 5.6501V15.4501C17.3701 16.3401 17.5301 16.6001 18.6201 16.6001H19.6201Z" fill="#3A3A3A"/>
</svg>
